<?xml version="1.0" encoding="UTF-8" standalone="no"?>
<svg
   xmlns:dc="http://purl.org/dc/elements/1.1/"
   xmlns:cc="http://creativecommons.org/ns#"
   xmlns:rdf="http://www.w3.org/1999/02/22-rdf-syntax-ns#"
   xmlns:svg="http://www.w3.org/2000/svg"
   xmlns="http://www.w3.org/2000/svg"
   xmlns:xlink="http://www.w3.org/1999/xlink"
   xmlns:sodipodi="http://sodipodi.sourceforge.net/DTD/sodipodi-0.dtd"
   xmlns:inkscape="http://www.inkscape.org/namespaces/inkscape"
   width="48px"
   height="48px"
   viewBox="0 0 48 48"
   version="1.1"
   id="svg154"
   sodipodi:docname="computer.svg"
   inkscape:version="0.92.3 (2405546, 2018-03-11)">
  <metadata
     id="metadata158">
    <rdf:RDF>
      <cc:Work
         rdf:about="">
        <dc:format>image/svg+xml</dc:format>
        <dc:type
           rdf:resource="http://purl.org/dc/dcmitype/StillImage" />
      </cc:Work>
    </rdf:RDF>
  </metadata>
  <sodipodi:namedview
     pagecolor="#ffffff"
     bordercolor="#666666"
     borderopacity="1"
     objecttolerance="10"
     gridtolerance="10"
     guidetolerance="10"
     inkscape:pageopacity="0"
     inkscape:pageshadow="2"
     inkscape:window-width="711"
     inkscape:window-height="480"
     id="namedview156"
     showgrid="false"
     inkscape:zoom="9.8333333"
     inkscape:cx="33.858939"
     inkscape:cy="29.986697"
     inkscape:window-x="0"
     inkscape:window-y="0"
     inkscape:window-maximized="0"
     inkscape:current-layer="svg154" />
  <!-- Generator: Sketch 3.8.3 (29802) - http://www.bohemiancoding.com/sketch -->
  <title
     id="title2">计算机</title>
  <desc
     id="desc4">Created with Sketch.</desc>
  <defs
     id="defs32">
    <filter
       x="-50%"
       y="-50%"
       width="200%"
       height="200%"
       filterUnits="objectBoundingBox"
       id="filter-1">
      <feOffset
         dx="0"
         dy="1"
         in="SourceAlpha"
         result="shadowOffsetOuter1"
         id="feOffset6" />
      <feGaussianBlur
         stdDeviation="0.5"
         in="shadowOffsetOuter1"
         result="shadowBlurOuter1"
         id="feGaussianBlur8" />
      <feColorMatrix
         values="0 0 0 0 0   0 0 0 0 0   0 0 0 0 0  0 0 0 0.3 0"
         type="matrix"
         in="shadowBlurOuter1"
         result="shadowMatrixOuter1"
         id="feColorMatrix10" />
      <feMerge
         id="feMerge16">
        <feMergeNode
           in="shadowMatrixOuter1"
           id="feMergeNode12" />
        <feMergeNode
           in="SourceGraphic"
           id="feMergeNode14" />
      </feMerge>
    </filter>
    <linearGradient
       x1="48.9505797%"
       y1="-17.2359557%"
       x2="48.9505801%"
       y2="152.824103%"
       id="linearGradient-2">
      <stop
         stop-color="#FFFFFFFB001A"
         offset="0%"
         id="stop19" />
      <stop
         stop-color="#000126"
         offset="0%"
         id="stop21" />
      <stop
         stop-color="#271582"
         offset="100%"
         id="stop23" />
    </linearGradient>
    <polygon
       id="path-3"
       points="2.0048124 2.028683 37.9640128 2.028683 37.9640128 24.9750823 2.0048124 24.9750823" />
    <mask
       id="mask-5"
       maskContentUnits="userSpaceOnUse"
       maskUnits="objectBoundingBox"
       x="-1"
       y="-1"
       width="37.9592004"
       height="24.9463993">
      <rect
         x="1.0048124"
         y="1.028683"
         width="37.9592004"
         height="24.9463993"
         fill="white"
         id="rect27" />
      <use
         xlink:href="#path-3"
         fill="black"
         id="use29" />
    </mask>
  </defs>
  <g
     id="Page-1"
     stroke="none"
     stroke-width="1"
     fill="none"
     fill-rule="evenodd">
    <g
       id="计算机">
      <g
         id="Group">
        <rect
           id="Rectangle-55"
           opacity="0.623717351"
           x="0"
           y="0"
           width="48"
           height="48" />
        <g
           id="Group-4"
           filter="url(#filter-1)"
           transform="translate(4.000000, 7.000000)">
          <rect
             id="Rectangle-5"
             fill="#EDEDED"
             x="0"
             y="0"
             width="40"
             height="32" />
          <rect
             id="rect36"
             fill="#29333C"
             x="2"
             y="1.98168945"
             width="36"
             height="23.0183105" />
          <rect
             id="Rectangle-133"
             fill="#A9BAC3"
             x="16"
             y="32"
             width="8"
             height="3" />
          <rect
             id="Rectangle-136"
             fill="#EDEDED"
             x="11"
             y="34"
             width="18"
             height="2"
             rx="1" />
          <mask
             id="mask-4"
             fill="white">
            <use
               xlink:href="#path-3"
               id="use40" />
          </mask>
          <g
             id="Rectangle-path">
            <use
               fill="url(#linearGradient-2)"
               fill-rule="evenodd"
               xlink:href="#path-3"
               id="use43" />
            <use
               stroke="#000000"
               mask="url(#mask-5)"
               stroke-width="2"
               xlink:href="#path-3"
               id="use45" />
          </g>
          <g
             id="Group-3"
             mask="url(#mask-4)">
            <g
               transform="translate(1.000000, 11.000000)"
               id="Group-2">
              <g
                 transform="translate(0.048124, 0.000000)"
                 id="g144">
                <polygon
                   id="Shape"
                   fill="#3310B5"
                   points="0.959293661 10.4688285 5.02322695 8.74923111 7.80917105 9.76059366 13.0849044 6.95730854 19.5720141 0.723536719 20.9964832 2.47319967 21.7664666 2.47319967 22.488326 1.62227069 25.1543933 4.44276561 26.078662 3.74051018 36.9640128 10.1984874 36.9640128 13.9463993 0.951876041 13.9463993" />
                <polygon
                   id="polygon49"
                   fill="#4722CD"
                   points="22.5556995 4.18461862 24.0656368 3.29095198 22.4930421 1.62227069" />
                <polygon
                   id="polygon51"
                   fill="#3917C9"
                   transform="translate(24.523344, 4.338226) scale(-1, 1) translate(-24.523344, -4.338226) "
                   points="23.872756 4.45233617 25.1739316 5.38548975 24.9810508 3.29096154" />
                <polygon
                   id="polygon53"
                   fill="#3913C4"
                   transform="translate(23.310668, 4.338226) scale(-1, 1) translate(-23.310668, -4.338226) "
                   points="24.0656368 4.18462818 22.7485803 5.38548975 22.5556995 3.29096154" />
                <polyline
                   id="polyline55"
                   fill="#9793DF"
                   points="19.5720141 8.6357516 26.0783733 3.74051974 26.7328591 9.82131557 24.0090431 8.19068706 19.5720141 8.6357516" />
                <polyline
                   id="polyline57"
                   fill="#4C2FE1"
                   points="19.5720141 8.6357516 26.0783733 3.74051974 26.7328591 9.82131557 24.0090431 8.19068706 19.5720141 8.6357516" />
                <polygon
                   id="polygon59"
                   fill="#6843E6"
                   points="7.80089373 9.75868146 5.01932891 8.74521549 13.0849044 6.95730854" />
                <polygon
                   id="polygon61"
                   fill="#8965EB"
                   points="10.3751405 8.39279704 5.01932891 8.74521549 13.0849044 6.95730854" />
                <polygon
                   id="polygon63"
                   fill="#4720E3"
                   points="7.80089373 9.75868146 5.01932891 8.74521549 0.00962479177 10.8537028" />
                <polygon
                   id="polygon65"
                   fill="#633EE6"
                   points="7.80089373 9.75868146 5.01932891 8.74521549 2.52768206 9.79941132 3.60236706 10.3500293" />
                <polygon
                   id="polygon67"
                   fill="#AF67F3"
                   points="15.5969751 8.1906775 13.0849044 6.95730854 19.5720141 0.723536719" />
                <polygon
                   id="polygon69"
                   fill="#8965EB"
                   points="15.5969751 8.1906775 13.0849044 6.95730854 17.4090346 4.78629233" />
                <polygon
                   id="polygon71"
                   fill="#6F50E7"
                   points="15.5969751 8.1906775 19.5720141 0.723536719 19.9762553 2.58793167" />
                <polygon
                   id="polygon73"
                   fill="#8959EE"
                   points="17.4079759 4.78782209 19.5720141 0.723536719 19.9762553 2.58793167" />
                <polygon
                   id="polygon75"
                   fill="#8E65EA"
                   points="22.488326 1.62227069 21.0446072 3.30500664 21.6695449 4.45232661 22.5556995 4.18461862" />
                <polygon
                   id="polygon77"
                   fill="#A964EB"
                   points="22.488326 1.62227069 21.0446072 3.30500664 21.6695449 4.45232661" />
                <polygon
                   id="polygon79"
                   fill="#7052E9"
                   points="21.0446265 3.30636431 19.321115 6.05037123 20.47609 6.05037123 21.6695642 4.45234573" />
                <polygon
                   id="polygon81"
                   fill="#5E3DE5"
                   points="21.0446265 3.30636431 19.321115 6.05037123 20.47609 6.05037123" />
                <polygon
                   id="polygon83"
                   fill="#6D4FEF"
                   points="7.80089373 9.75868146 14.1727946 9.48026515 13.0849044 6.95730854" />
                <polygon
                   id="polygon85"
                   fill="#3C12D1"
                   points="7.80089373 9.75868146 14.1727946 9.48026515 16.1479944 10.0452246 6.98166995 13.9463993" />
                <polygon
                   id="polygon87"
                   fill="#5F41EF"
                   points="13.0849044 6.95730854 14.1727946 9.48026515 15.5969751 8.1906775" />
                <polygon
                   id="Combined-Shape"
                   fill="#6037F2"
                   points="24 8.19208771 19.5720333 8.59223949 6.85634479 14 10.7457704 14 24 10.535623 24 8.19208771" />
                <polygon
                   id="polygon90"
                   fill="#542CE6"
                   points="19.5719852 8.59222993 20.3351349 8.52358195 15.5969462 12.7288921 12.3772127 11.6452484" />
                <polygon
                   id="polygon92"
                   fill="#7B4BEB"
                   points="26.0790278 3.74053887 19.5719948 8.59226818 24.0107563 8.19089741 26.1326379 4.24985332" />
                <polygon
                   id="polygon94"
                   fill="#3612C1"
                   points="36.9640128 10.1976461 26.0790182 3.74051974 36.9688252 13.9464185" />
                <polygon
                   id="polygon96"
                   fill="#3C1EC2"
                   points="36.9640128 13.9464185 26.732888 9.82132513 32.6419038 13.9464185" />
                <polygon
                   id="polygon98"
                   fill="#4F2EE1"
                   points="17.7769904 5.39886558 19.5720141 8.59223949 15.5969751 8.1906775" />
                <polygon
                   id="polygon100"
                   fill="#4522D5"
                   points="17.7769904 5.39886558 19.5720141 8.59223949 20.1482504 6.54628116 19.3210957 6.05035211" />
                <polyline
                   id="polyline102"
                   fill="#3D1BCA"
                   points="22.5556995 4.18461862 23.872756 5.38548018 22.6739882 6.27914683 21.6750311 4.45232661" />
                <polyline
                   id="polyline104"
                   fill="#4826D9"
                   points="20.4747233 6.05035211 21.4946625 7.15866319 22.6739882 6.27914683 21.6750311 4.45232661" />
                <polygon
                   id="polygon106"
                   fill="#421FCC"
                   points="19.4145525 3.30739689 20.4137021 4.30480039 19.3210957 6.05035211 17.7772791 5.39886558" />
                <polygon
                   id="polygon108"
                   fill="#7863D3"
                   points="19.9762553 2.58793167 21.0446072 3.30634518 20.4137021 4.31847262 19.4145525 3.30634518" />
                <polygon
                   id="polygon110"
                   fill="#4A26D4"
                   points="19.9762553 2.58793167 21.0446072 3.30634518 20.4137021 4.31847262 19.4145525 3.30634518" />
                <polygon
                   id="polygon112"
                   fill="#4F2BD9"
                   points="19.9762553 2.58793167 21.0446072 3.30634518 20.4137021 4.31847262" />
                <polygon
                   id="polygon114"
                   fill="#6548DB"
                   points="19.3210957 6.05034254 20.4727021 6.05034254 20.1477691 6.57306982" />
                <polygon
                   id="polygon116"
                   fill="#563AD7"
                   points="21.4947587 7.15865363 20.4727021 6.05034254 20.1477691 6.5462716" />
                <polygon
                   id="polygon118"
                   fill="#502ED8"
                   points="14.1718514 9.47724387 15.5969943 8.19071575 16.1482061 10.0451673" />
                <polygon
                   id="polygon120"
                   fill="#4721DA"
                   points="14.1718514 9.47724387 12.3772127 11.6452006 16.1482061 10.0451673" />
                <polygon
                   id="polygon122"
                   fill="#4826D5"
                   points="19.5720333 8.59227774 15.5969943 8.19071575 16.1482061 10.0451673" />
                <polygon
                   id="polygon124"
                   fill="#7E65D9"
                   points="20.1488615 6.5462716 19.5720478 8.59222993 21.4946962 7.15865363" />
                <polygon
                   id="polygon126"
                   fill="#5E3ADB"
                   points="20.1488615 6.5462716 19.5720478 8.59222993 21.4946962 7.15865363" />
                <polygon
                   id="polygon128"
                   fill="#4627D2"
                   points="0.0097617054 13.94628 7.80095646 9.75871975 6.98160316 13.94628" />
                <polygon
                   id="polygon130"
                   fill="#3F14D7"
                   points="0.0097617054 13.94628 7.33512475 12.1356823 6.98160316 13.94628" />
                <polygon
                   id="polygon132"
                   fill="#3416C2"
                   points="0.0097617054 13.94628 7.80095646 9.75871975 3.61293802 10.3477982" />
                <polygon
                   id="polygon134"
                   fill="#3918D4"
                   points="0.0097617054 13.94628 0.0097617054 10.8536918 3.61293802 10.3477982" />
                <polygon
                   id="polygon136"
                   fill="#4224CA"
                   points="10.9724736 13.9464476 26.7329002 9.82142346 32.6419434 13.9464476" />
                <polygon
                   id="polygon138"
                   fill="#4624D8"
                   points="12.3984643 11.6452579 15.5969751 12.7312919 10.9723589 13.9463993 6.98166995 13.9463993" />
                <polygon
                   id="polygon140"
                   fill="#664BE3"
                   points="20.3349617 8.52340029 19.5720141 8.59223949 21.4947106 7.15866319" />
                <polygon
                   id="polygon142"
                   fill="#9E58E4"
                   points="26.0789508 3.74051018 26.1325609 4.24953781 21.4947106 7.15866319" />
              </g>
            </g>
          </g>
          <polygon
             id="polygon148"
             fill="#D9D9D9"
             opacity="0.1"
             style="mix-blend-mode: lighten;"
             mask="url(#mask-4)"
             points="2 1.98168945 12.4210526 1.98168945 26.6315789 25 2 25" />
        </g>
      </g>
    </g>
  </g>
  <g
     id="g987"
     transform="matrix(0.02436763,0,0,0.02436763,31.483006,6.9820834)"
     style="stroke-width:41.03805161">
    <path
       id="path911"
       d="m 508.709,232.816 c 4.267,-4.062 4.433,-10.814 0.371,-15.08 -1.953,-2.052 -4.643,-3.242 -7.475,-3.309 -21.589,-0.512 -21.589,-30.955 -21.589,-32.213 0.046,-3.935 -2.077,-7.576 -5.525,-9.472 L 371.387,115.995 c -3.813,-2.11 -8.526,-1.687 -11.904,1.067 l -82.645,67.392 c -4.11,3.364 -5.12,9.239 -2.368,13.781 l 25.771,42.667 c 0.482,0.783 1.063,1.5 1.728,2.133 12.109,13.958 18.294,32.09 17.237,50.539 0.05,29.076 -11.725,56.922 -32.619,77.141 -4.266,4.062 -4.432,10.814 -0.37,15.08 1.433,1.505 3.274,2.559 5.298,3.032 15.201,6.461 27.395,18.434 34.133,33.515 14.051,22.273 19.567,48.878 15.531,74.901 -1.866,5.588 1.151,11.63 6.738,13.496 4.881,1.63 10.231,-0.457 12.718,-4.963 17.237,-30.805 45.419,-56.811 64.192,-59.157 3.866,-0.868 7.906,0.336 10.667,3.179 4.062,4.267 10.814,4.433 15.08,0.371 2.052,-1.953 3.242,-4.643 3.309,-7.475 0,-2.133 0,-4.416 0,-6.997 -2.583,-28.224 8.183,-56.032 29.099,-75.157 4.271,-4.057 4.444,-10.809 0.387,-15.08 -0.001,-10e-4 -0.002,-0.002 -0.003,-0.003 -9.698,-15.237 -12.136,-33.99 -6.656,-51.2 4.419,-23.172 15.546,-44.536 31.999,-61.441 z"
       style="fill:#43a047;stroke-width:41.03805161"
       inkscape:connector-curvature="0" />
    <path
       id="path913"
       d="m 337.637,152.646 c -3.649,-3.038 -8.866,-3.299 -12.8,-0.64 L 293.84,105.478 c 0.491,-0.448 1.259,-0.747 1.728,-1.195 4.237,-4.092 4.355,-10.845 0.262,-15.083 -4.093,-4.238 -10.845,-4.355 -15.083,-0.262 -0.089,0.086 -0.176,0.173 -0.262,0.262 -16.939,16.939 -100.907,11.328 -113.067,-0.213 -4.234,-4.096 -10.987,-3.984 -15.083,0.249 -2.057,2.126 -3.138,5.01 -2.986,7.964 -1.579,24.527 -12.225,47.591 -29.867,64.704 -16.885,18.909 -40.794,30.054 -66.133,30.827 -5.891,0.003 -10.664,4.781 -10.662,10.672 0.001,2.075 0.607,4.105 1.744,5.84 6.543,15.171 7.115,32.255 1.6,47.829 -5.193,25.812 -19.544,48.876 -40.405,64.939 -5.191,2.785 -7.142,9.251 -4.357,14.442 2.417,4.505 7.689,6.661 12.57,5.142 33.749,-10.432 72.064,-9.792 87.296,1.451 3.409,2.043 5.51,5.711 5.547,9.685 -0.034,4.348 2.574,8.281 6.592,9.941 1.291,0.538 2.676,0.813 4.075,0.811 2.831,0.005 5.548,-1.115 7.552,-3.115 1.451,-1.451 3.072,-3.179 4.843,-5.077 17.553,-22.314 44.553,-35.107 72.939,-34.56 5.891,0 10.667,-4.776 10.667,-10.667 0,-26.432 49.643,-64 96,-64 5.891,0.011 10.675,-4.757 10.686,-10.648 0.005,-2.84 -1.123,-5.565 -3.134,-7.571 -12.117,-12.117 9.493,-45.781 21.867,-60.16 3.838,-4.465 3.332,-11.198 -1.132,-15.039 z"
       style="fill:#4caf50;stroke-width:41.03805161"
       inkscape:connector-curvature="0" />
    <g
       id="g919"
       style="stroke-width:41.03805161">
      <path
         id="path915"
         d="m 138.682,256.731 c -5.891,-0.011 -10.657,-4.796 -10.646,-10.687 0.006,-3.111 1.37,-6.064 3.734,-8.086 4.267,-3.605 104.064,-88.427 152.171,-108.416 5.467,-2.25 11.723,0.357 13.973,5.824 2.25,5.467 -0.357,11.723 -5.824,13.973 v 0 c -45.013,18.688 -145.472,104.064 -146.496,104.917 -1.938,1.617 -4.388,2.494 -6.912,2.475 z"
         style="fill:#388e3c;stroke-width:41.03805161"
         inkscape:connector-curvature="0" />
      <path
         id="path917"
         d="m 385.104,361.2 c -5.462,0.033 -10.066,-4.065 -10.667,-9.493 -0.448,-4.267 -11.115,-103.893 10.411,-152.619 1.99,-5.545 8.098,-8.426 13.643,-6.436 5.545,1.99 8.426,8.098 6.436,13.643 -0.163,0.455 -0.357,0.898 -0.58,1.326 -19.2,43.477 -8.811,140.672 -8.704,141.653 0.648,5.855 -3.573,11.127 -9.428,11.776 0,0 -10e-4,0 -10e-4,0 z"
         style="fill:#388e3c;stroke-width:41.03805161"
         inkscape:connector-curvature="0" />
    </g>
    <path
       id="path921"
       d="m 448.016,0.731 c -28.977,0.092 -54.276,19.642 -61.675,47.659 -1.091,4.114 0.368,8.482 3.712,11.115 l 76.651,60.288 c 1.885,1.483 4.215,2.287 6.613,2.283 1.774,-0.005 3.52,-0.452 5.077,-1.301 C 509.44,104.076 521.07,65.371 504.371,34.325 493.219,13.59 471.559,0.678 448.016,0.731 Z"
       style="fill:#e53935;stroke-width:41.03805161"
       inkscape:connector-curvature="0" />
    <circle
       id="circle923"
       r="74.667"
       cy="96.731003"
       cx="352.01599"
       style="fill:#d32f2f;stroke-width:41.03805161" />
    <circle
       id="circle925"
       r="74.667"
       cy="139.39799"
       cx="416.01599"
       style="fill:#f44336;stroke-width:41.03805161" />
    <g
       id="g927"
       style="stroke-width:41.03805161" />
    <g
       id="g929"
       style="stroke-width:41.03805161" />
    <g
       id="g931"
       style="stroke-width:41.03805161" />
    <g
       id="g933"
       style="stroke-width:41.03805161" />
    <g
       id="g935"
       style="stroke-width:41.03805161" />
    <g
       id="g937"
       style="stroke-width:41.03805161" />
    <g
       id="g939"
       style="stroke-width:41.03805161" />
    <g
       id="g941"
       style="stroke-width:41.03805161" />
    <g
       id="g943"
       style="stroke-width:41.03805161" />
    <g
       id="g945"
       style="stroke-width:41.03805161" />
    <g
       id="g947"
       style="stroke-width:41.03805161" />
    <g
       id="g949"
       style="stroke-width:41.03805161" />
    <g
       id="g951"
       style="stroke-width:41.03805161" />
    <g
       id="g953"
       style="stroke-width:41.03805161" />
    <g
       id="g955"
       style="stroke-width:41.03805161" />
  </g>
</svg>
