<?xml version="1.0" encoding="UTF-8" standalone="no"?>
<svg
   xmlns:dc="http://purl.org/dc/elements/1.1/"
   xmlns:cc="http://creativecommons.org/ns#"
   xmlns:rdf="http://www.w3.org/1999/02/22-rdf-syntax-ns#"
   xmlns:svg="http://www.w3.org/2000/svg"
   xmlns="http://www.w3.org/2000/svg"
   xmlns:sodipodi="http://sodipodi.sourceforge.net/DTD/sodipodi-0.dtd"
   xmlns:inkscape="http://www.inkscape.org/namespaces/inkscape"
   width="48px"
   height="48px"
   viewBox="0 0 48 48"
   version="1.1"
   id="svg38"
   sodipodi:docname="drive-removable-media.svg"
   inkscape:version="0.92.3 (2405546, 2018-03-11)">
  <metadata
     id="metadata42">
    <rdf:RDF>
      <cc:Work
         rdf:about="">
        <dc:format>image/svg+xml</dc:format>
        <dc:type
           rdf:resource="http://purl.org/dc/dcmitype/StillImage" />
      </cc:Work>
    </rdf:RDF>
  </metadata>
  <sodipodi:namedview
     pagecolor="#ffffff"
     bordercolor="#666666"
     borderopacity="1"
     objecttolerance="10"
     gridtolerance="10"
     guidetolerance="10"
     inkscape:pageopacity="0"
     inkscape:pageshadow="2"
     inkscape:window-width="1152"
     inkscape:window-height="802"
     id="namedview40"
     showgrid="false"
     inkscape:zoom="32"
     inkscape:cx="36.580539"
     inkscape:cy="34.865842"
     inkscape:window-x="-8"
     inkscape:window-y="-8"
     inkscape:window-maximized="1"
     inkscape:current-layer="svg38" />
  <!-- Generator: Sketch 39.1 (31720) - http://www.bohemiancoding.com/sketch -->
  <title
     id="title2">drive-removable-media-48px</title>
  <desc
     id="desc4">Created with Sketch.</desc>
  <defs
     id="defs11">
    <linearGradient
       x1="50%"
       y1="0%"
       x2="50%"
       y2="100%"
       id="linearGradient-1">
      <stop
         stop-color="#E362CA"
         offset="0%"
         id="stop6" />
      <stop
         stop-color="#E3147D"
         offset="100%"
         id="stop8" />
    </linearGradient>
  </defs>
  <g
     id="Page-1"
     stroke="none"
     stroke-width="1"
     fill="none"
     fill-rule="evenodd">
    <g
       id="drive-removable-media-48px">
      <g
         id="Group"
         transform="translate(7.500000, 4.000000)">
        <rect
           id="Rectangle-11"
           fill="url(#linearGradient-1)"
           x="0"
           y="0"
           width="32"
           height="38"
           rx="2" />
        <circle
           id="Oval-7"
           fill="#FFFFFF"
           cx="29.25"
           cy="2.75"
           r="0.75" />
        <rect
           id="rect15"
           fill="#6E1268"
           transform="translate(16.000000, 37.000000) rotate(180.000000) translate(-16.000000, -37.000000) "
           x="-3.55271368e-15"
           y="34"
           width="32"
           height="6"
           rx="2" />
        <circle
           id="circle17"
           fill="#FFFFFF"
           cx="2.75"
           cy="2.75"
           r="0.75" />
        <path
           d="M2.75,32 C3.16421356,32 3.5,31.6642136 3.5,31.25 C3.5,30.8357864 3.16421356,30.5 2.75,30.5 C2.33578644,30.5 2,30.8357864 2,31.25 C2,31.6642136 2.33578644,32 2.75,32 Z"
           id="path19"
           fill="#FFFFFF" />
        <circle
           id="circle21"
           fill="#FFFFFF"
           cx="29.25"
           cy="31.25"
           r="0.75" />
        <path
           d="M29.25,38 C29.6642136,38 30,37.6642136 30,37.25 C30,36.8357864 29.6642136,36.5 29.25,36.5 C28.8357864,36.5 28.5,36.8357864 28.5,37.25 C28.5,37.6642136 28.8357864,38 29.25,38 Z"
           id="path23"
           fill="#1CF892" />
        <rect
           id="Rectangle"
           fill="#1CF892"
           x="2"
           y="35"
           width="1"
           height="3"
           rx="0.5" />
        <rect
           id="rect26"
           fill="#1CF892"
           x="4"
           y="35"
           width="1"
           height="3"
           rx="0.5" />
        <rect
           id="rect28"
           fill="#1CF892"
           x="6"
           y="35"
           width="1"
           height="3"
           rx="0.5" />
      </g>
      <g
         id="g34"
         transform="translate(16.000000, 14.000000)"
         fill="#FFFFFF">
        <path
           d="M14.987,11.929 C14.987,11.414 14.569,10.996 14.054,10.996 L1.92,10.996 C1.405,10.996 0.987,11.414 0.987,11.929 L0.987,12.063 C0.987,12.578 1.405,12.996 1.92,12.996 L14.054,12.996 C14.569,12.996 14.987,12.578 14.987,12.063 L14.987,11.929 L14.987,11.929 Z"
           id="Shape" />
        <path
           d="M2.24,8.996 L13.738,8.996 C14.096,8.996 14.417,8.973 14.574,8.662 C14.729,8.357 14.697,8.079 14.483,7.787 L8.742,0.365 C8.389,-0.12 7.579,-0.093 7.244,0.367 L1.486,7.877 C1.281,8.158 1.25,8.356 1.404,8.659 C1.561,8.969 1.882,8.996 2.24,8.996 L2.24,8.996 Z"
           id="path32" />
      </g>
    </g>
  </g>
  <g
     id="g1018"
     transform="matrix(0.02474725,0,0,0.02474725,26.631586,4.0444098)"
     style="stroke-width:40.40853882">
    <path
       id="path942"
       d="m 508.709,232.816 c 4.267,-4.062 4.433,-10.814 0.371,-15.08 -1.953,-2.052 -4.643,-3.242 -7.475,-3.309 -21.589,-0.512 -21.589,-30.955 -21.589,-32.213 0.046,-3.935 -2.077,-7.576 -5.525,-9.472 L 371.387,115.995 c -3.813,-2.11 -8.526,-1.687 -11.904,1.067 l -82.645,67.392 c -4.11,3.364 -5.12,9.239 -2.368,13.781 l 25.771,42.667 c 0.482,0.783 1.063,1.5 1.728,2.133 12.109,13.958 18.294,32.09 17.237,50.539 0.05,29.076 -11.725,56.922 -32.619,77.141 -4.266,4.062 -4.432,10.814 -0.37,15.08 1.433,1.505 3.274,2.559 5.298,3.032 15.201,6.461 27.395,18.434 34.133,33.515 14.051,22.273 19.567,48.878 15.531,74.901 -1.866,5.588 1.151,11.63 6.738,13.496 4.881,1.63 10.231,-0.457 12.718,-4.963 17.237,-30.805 45.419,-56.811 64.192,-59.157 3.866,-0.868 7.906,0.336 10.667,3.179 4.062,4.267 10.814,4.433 15.08,0.371 2.052,-1.953 3.242,-4.643 3.309,-7.475 0,-2.133 0,-4.416 0,-6.997 -2.583,-28.224 8.183,-56.032 29.099,-75.157 4.271,-4.057 4.444,-10.809 0.387,-15.08 -0.001,-10e-4 -0.002,-0.002 -0.003,-0.003 -9.698,-15.237 -12.136,-33.99 -6.656,-51.2 4.419,-23.172 15.546,-44.536 31.999,-61.441 z"
       style="fill:#43a047;stroke-width:40.40853882"
       inkscape:connector-curvature="0" />
    <path
       id="path944"
       d="m 337.637,152.646 c -3.649,-3.038 -8.866,-3.299 -12.8,-0.64 L 293.84,105.478 c 0.491,-0.448 1.259,-0.747 1.728,-1.195 4.237,-4.092 4.355,-10.845 0.262,-15.083 -4.093,-4.238 -10.845,-4.355 -15.083,-0.262 -0.089,0.086 -0.176,0.173 -0.262,0.262 -16.939,16.939 -100.907,11.328 -113.067,-0.213 -4.234,-4.096 -10.987,-3.984 -15.083,0.249 -2.057,2.126 -3.138,5.01 -2.986,7.964 -1.579,24.527 -12.225,47.591 -29.867,64.704 -16.885,18.909 -40.794,30.054 -66.133,30.827 -5.891,0.003 -10.664,4.781 -10.662,10.672 0.001,2.075 0.607,4.105 1.744,5.84 6.543,15.171 7.115,32.255 1.6,47.829 -5.193,25.812 -19.544,48.876 -40.405,64.939 -5.191,2.785 -7.142,9.251 -4.357,14.442 2.417,4.505 7.689,6.661 12.57,5.142 33.749,-10.432 72.064,-9.792 87.296,1.451 3.409,2.043 5.51,5.711 5.547,9.685 -0.034,4.348 2.574,8.281 6.592,9.941 1.291,0.538 2.676,0.813 4.075,0.811 2.831,0.005 5.548,-1.115 7.552,-3.115 1.451,-1.451 3.072,-3.179 4.843,-5.077 17.553,-22.314 44.553,-35.107 72.939,-34.56 5.891,0 10.667,-4.776 10.667,-10.667 0,-26.432 49.643,-64 96,-64 5.891,0.011 10.675,-4.757 10.686,-10.648 0.005,-2.84 -1.123,-5.565 -3.134,-7.571 -12.117,-12.117 9.493,-45.781 21.867,-60.16 3.838,-4.465 3.332,-11.198 -1.132,-15.039 z"
       style="fill:#4caf50;stroke-width:40.40853882"
       inkscape:connector-curvature="0" />
    <g
       id="g950"
       style="stroke-width:40.40853882">
      <path
         id="path946"
         d="m 138.682,256.731 c -5.891,-0.011 -10.657,-4.796 -10.646,-10.687 0.006,-3.111 1.37,-6.064 3.734,-8.086 4.267,-3.605 104.064,-88.427 152.171,-108.416 5.467,-2.25 11.723,0.357 13.973,5.824 2.25,5.467 -0.357,11.723 -5.824,13.973 v 0 c -45.013,18.688 -145.472,104.064 -146.496,104.917 -1.938,1.617 -4.388,2.494 -6.912,2.475 z"
         style="fill:#388e3c;stroke-width:40.40853882"
         inkscape:connector-curvature="0" />
      <path
         id="path948"
         d="m 385.104,361.2 c -5.462,0.033 -10.066,-4.065 -10.667,-9.493 -0.448,-4.267 -11.115,-103.893 10.411,-152.619 1.99,-5.545 8.098,-8.426 13.643,-6.436 5.545,1.99 8.426,8.098 6.436,13.643 -0.163,0.455 -0.357,0.898 -0.58,1.326 -19.2,43.477 -8.811,140.672 -8.704,141.653 0.648,5.855 -3.573,11.127 -9.428,11.776 0,0 -10e-4,0 -10e-4,0 z"
         style="fill:#388e3c;stroke-width:40.40853882"
         inkscape:connector-curvature="0" />
    </g>
    <path
       id="path952"
       d="m 448.016,0.731 c -28.977,0.092 -54.276,19.642 -61.675,47.659 -1.091,4.114 0.368,8.482 3.712,11.115 l 76.651,60.288 c 1.885,1.483 4.215,2.287 6.613,2.283 1.774,-0.005 3.52,-0.452 5.077,-1.301 C 509.44,104.076 521.07,65.371 504.371,34.325 493.219,13.59 471.559,0.678 448.016,0.731 Z"
       style="fill:#e53935;stroke-width:40.40853882"
       inkscape:connector-curvature="0" />
    <circle
       id="circle954"
       r="74.667"
       cy="96.731003"
       cx="352.01599"
       style="fill:#d32f2f;stroke-width:40.40853882" />
    <circle
       id="circle956"
       r="74.667"
       cy="139.39799"
       cx="416.01599"
       style="fill:#f44336;stroke-width:40.40853882" />
    <g
       id="g958"
       style="stroke-width:40.40853882" />
    <g
       id="g960"
       style="stroke-width:40.40853882" />
    <g
       id="g962"
       style="stroke-width:40.40853882" />
    <g
       id="g964"
       style="stroke-width:40.40853882" />
    <g
       id="g966"
       style="stroke-width:40.40853882" />
    <g
       id="g968"
       style="stroke-width:40.40853882" />
    <g
       id="g970"
       style="stroke-width:40.40853882" />
    <g
       id="g972"
       style="stroke-width:40.40853882" />
    <g
       id="g974"
       style="stroke-width:40.40853882" />
    <g
       id="g976"
       style="stroke-width:40.40853882" />
    <g
       id="g978"
       style="stroke-width:40.40853882" />
    <g
       id="g980"
       style="stroke-width:40.40853882" />
    <g
       id="g982"
       style="stroke-width:40.40853882" />
    <g
       id="g984"
       style="stroke-width:40.40853882" />
    <g
       id="g986"
       style="stroke-width:40.40853882" />
  </g>
</svg>
