<?xml version="1.0" encoding="UTF-8" standalone="no"?>
<svg
   xmlns:dc="http://purl.org/dc/elements/1.1/"
   xmlns:cc="http://creativecommons.org/ns#"
   xmlns:rdf="http://www.w3.org/1999/02/22-rdf-syntax-ns#"
   xmlns:svg="http://www.w3.org/2000/svg"
   xmlns="http://www.w3.org/2000/svg"
   xmlns:sodipodi="http://sodipodi.sourceforge.net/DTD/sodipodi-0.dtd"
   xmlns:inkscape="http://www.inkscape.org/namespaces/inkscape"
   width="48px"
   height="48px"
   viewBox="0 0 48 48"
   version="1.1"
   id="svg43"
   sodipodi:docname="drive-harddisk-deepin.svg"
   inkscape:version="0.92.3 (2405546, 2018-03-11)">
  <metadata
     id="metadata47">
    <rdf:RDF>
      <cc:Work
         rdf:about="">
        <dc:format>image/svg+xml</dc:format>
        <dc:type
           rdf:resource="http://purl.org/dc/dcmitype/StillImage" />
      </cc:Work>
    </rdf:RDF>
  </metadata>
  <sodipodi:namedview
     pagecolor="#ffffff"
     bordercolor="#666666"
     borderopacity="1"
     objecttolerance="10"
     gridtolerance="10"
     guidetolerance="10"
     inkscape:pageopacity="0"
     inkscape:pageshadow="2"
     inkscape:window-width="711"
     inkscape:window-height="480"
     id="namedview45"
     showgrid="false"
     inkscape:zoom="13.906433"
     inkscape:cx="32.274746"
     inkscape:cy="37.38378"
     inkscape:window-x="0"
     inkscape:window-y="0"
     inkscape:window-maximized="0"
     inkscape:current-layer="svg43" />
  <!-- Generator: Sketch 39.1 (31720) - http://www.bohemiancoding.com/sketch -->
  <title
     id="title2">drive-harddisk-deepin-48px</title>
  <desc
     id="desc4">Created with Sketch.</desc>
  <defs
     id="defs11">
    <linearGradient
       x1="51.9699097%"
       y1="0%"
       x2="51.9699097%"
       y2="100%"
       id="linearGradient-1">
      <stop
         stop-color="#C2EF5E"
         offset="0%"
         id="stop6" />
      <stop
         stop-color="#3EDA8A"
         offset="100%"
         id="stop8" />
    </linearGradient>
  </defs>
  <g
     id="g41"
     stroke="none"
     stroke-width="1"
     fill="none"
     fill-rule="evenodd">
    <g
       id="drive-harddisk-deepin-48px">
      <circle
         id="Oval-7"
         fill="#FFFFFF"
         cx="37.25"
         cy="8.75"
         r="0.75" />
      <circle
         id="circle14"
         fill="#FFFFFF"
         cx="10.75"
         cy="8.75"
         r="0.75" />
      <circle
         id="circle16"
         fill="#FFFFFF"
         cx="10.75"
         cy="33.25"
         r="0.75" />
      <circle
         id="circle18"
         fill="#FFFFFF"
         cx="37.25"
         cy="33.25"
         r="0.75" />
      <g
         id="Group"
         transform="translate(8.000000, 4.000000)">
        <rect
           id="Rectangle-11"
           fill="url(#linearGradient-1)"
           x="0"
           y="0"
           width="32"
           height="37"
           rx="2" />
        <circle
           id="circle21"
           fill="#FFFFFF"
           cx="29.25"
           cy="2.75"
           r="0.75" />
        <rect
           id="rect23"
           fill="#1F9075"
           transform="translate(16.000000, 37.000000) rotate(180.000000) translate(-16.000000, -37.000000) "
           x="0"
           y="34"
           width="32"
           height="6"
           rx="2" />
        <circle
           id="circle25"
           fill="#FFFFFF"
           cx="2.75"
           cy="2.75"
           r="0.75" />
        <circle
           id="circle27"
           fill="#FFFFFF"
           cx="2.75"
           cy="31.25"
           r="0.75" />
        <circle
           id="circle29"
           fill="#FFFFFF"
           cx="29.25"
           cy="31.25"
           r="0.75" />
        <circle
           id="circle31"
           fill="#C0EE5E"
           cx="29.25"
           cy="36.25"
           r="0.75" />
        <path
           d="M2,35.495389 C2,35.2217932 2.23193359,35 2.5,35 L2.5,35 C2.77614237,35 3,35.2272203 3,35.5066152 L3,36.1784668 L3,37.502258 C3,37.7771533 2.76806641,38 2.5,38 L2.5,38 C2.22385763,38 2,37.7842474 2,37.504611 L2,35.495389 Z"
           id="Rectangle"
           fill="#3FDA8A" />
        <rect
           id="rect34"
           fill="#3FDA8A"
           x="4"
           y="35"
           width="1"
           height="3"
           rx="0.5" />
        <rect
           id="rect36"
           fill="#3FDA8A"
           x="6"
           y="35"
           width="1"
           height="3"
           rx="0.5" />
      </g>
      <path
         d="M24,28 C23.5433846,28 23.0964615,27.9558462 22.6646154,27.8718462 C24.4803077,27.3635385 26.6373846,26.1078462 27.6626154,24.0918462 C27.6626154,24.0918462 29.7647692,20.6467692 26.2076923,17.5463077 C26.2076923,17.5463077 27.122,18.9850769 27.15,20.4324615 C27.15,20.4324615 27.3675385,22.3353846 25.6843077,23.5243077 C23.202,25.2764615 19.3347692,24.4870769 17.6892308,24.0326154 C17.2476923,23.1150769 17,22.0866154 17,21 C17,19.3738462 17.5546154,17.878 18.4850769,16.6890769 C18.9438462,18.9043077 19.8915385,20.7544615 20.5290769,21.4415385 C21.3787692,22.3558462 22.6301538,23.3272308 24.2369231,22.9266154 C25.8426154,22.5249231 26.17,20.7684615 26.17,20.7684615 C26.5253846,19.2747692 26.0192308,17.5 25.9923077,17.4623077 C25.9653846,17.4246154 25.7241538,17.3836923 25.7241538,17.3836923 C25.9761538,19.7367692 25.3569231,20.7781538 25.3569231,20.7781538 C24.4566154,22.6229231 23.1341538,22.0521538 23.1341538,22.0521538 C21.6641538,21.3026154 21.7330769,19.1907692 21.7330769,19.1907692 C21.69,17.7746154 22.2295385,15.4678462 23.2698462,14.0376923 C23.51,14.0129231 23.7533846,14 24,14 C24.9369231,14 25.8307692,14.1841538 26.6481538,14.5190769 C25.7801538,15.2481538 24.4426154,16.6126154 24.4426154,16.6126154 C22.2758462,18.6210769 22.6958462,20.3107692 22.6958462,20.3107692 C23.0404615,22.0855385 24.1152308,20.8901538 24.1152308,20.8901538 C25.2449231,19.7227692 25.1609231,17.3976923 25.1609231,17.3976923 C24.7032308,17.472 24.4135385,17.724 24.4135385,17.724 C24.3575385,19.2747692 23.4421538,20.2364615 23.4421538,20.2364615 C23.0878462,20.6284615 22.8358462,20.2547692 22.8358462,20.2547692 C22.6495385,19.9747692 23.0221538,19.7787692 23.0221538,19.7787692 C23.5455385,19.3210769 23.7016923,18.5403077 23.6952308,18.2473846 C23.6876923,17.9533846 23.8438462,17.8736923 23.8438462,17.8736923 C24.5826154,17.304 25.3203077,16.968 25.3203077,16.968 C26.31,16.4629231 28.0750769,16.3789231 28.0750769,16.3789231 C28.4929231,16.3929231 28.8935385,16.3767692 29.2327692,16.3509231 C30.3323077,17.5872308 31,19.2155385 31,21 C31,24.8661538 27.8661538,28 24,28 M16,21 C16,25.4182857 19.5817143,29 24,29 C28.4182857,29 32,25.4182857 32,21 C32,16.5817143 28.4182857,13 24,13 C19.5817143,13 16,16.5817143 16,21 Z"
         id="Page-1"
         fill="#FFFFFF" />
    </g>
  </g>
  <g
     id="g987"
     transform="matrix(0.02436763,0,0,0.02436763,27.367006,4.1310834)"
     style="stroke-width:41.03805161">
    <path
       id="path911"
       d="m 508.709,232.816 c 4.267,-4.062 4.433,-10.814 0.371,-15.08 -1.953,-2.052 -4.643,-3.242 -7.475,-3.309 -21.589,-0.512 -21.589,-30.955 -21.589,-32.213 0.046,-3.935 -2.077,-7.576 -5.525,-9.472 L 371.387,115.995 c -3.813,-2.11 -8.526,-1.687 -11.904,1.067 l -82.645,67.392 c -4.11,3.364 -5.12,9.239 -2.368,13.781 l 25.771,42.667 c 0.482,0.783 1.063,1.5 1.728,2.133 12.109,13.958 18.294,32.09 17.237,50.539 0.05,29.076 -11.725,56.922 -32.619,77.141 -4.266,4.062 -4.432,10.814 -0.37,15.08 1.433,1.505 3.274,2.559 5.298,3.032 15.201,6.461 27.395,18.434 34.133,33.515 14.051,22.273 19.567,48.878 15.531,74.901 -1.866,5.588 1.151,11.63 6.738,13.496 4.881,1.63 10.231,-0.457 12.718,-4.963 17.237,-30.805 45.419,-56.811 64.192,-59.157 3.866,-0.868 7.906,0.336 10.667,3.179 4.062,4.267 10.814,4.433 15.08,0.371 2.052,-1.953 3.242,-4.643 3.309,-7.475 0,-2.133 0,-4.416 0,-6.997 -2.583,-28.224 8.183,-56.032 29.099,-75.157 4.271,-4.057 4.444,-10.809 0.387,-15.08 -0.001,-10e-4 -0.002,-0.002 -0.003,-0.003 -9.698,-15.237 -12.136,-33.99 -6.656,-51.2 4.419,-23.172 15.546,-44.536 31.999,-61.441 z"
       style="fill:#43a047;stroke-width:41.03805161"
       inkscape:connector-curvature="0" />
    <path
       id="path913"
       d="m 337.637,152.646 c -3.649,-3.038 -8.866,-3.299 -12.8,-0.64 L 293.84,105.478 c 0.491,-0.448 1.259,-0.747 1.728,-1.195 4.237,-4.092 4.355,-10.845 0.262,-15.083 -4.093,-4.238 -10.845,-4.355 -15.083,-0.262 -0.089,0.086 -0.176,0.173 -0.262,0.262 -16.939,16.939 -100.907,11.328 -113.067,-0.213 -4.234,-4.096 -10.987,-3.984 -15.083,0.249 -2.057,2.126 -3.138,5.01 -2.986,7.964 -1.579,24.527 -12.225,47.591 -29.867,64.704 -16.885,18.909 -40.794,30.054 -66.133,30.827 -5.891,0.003 -10.664,4.781 -10.662,10.672 0.001,2.075 0.607,4.105 1.744,5.84 6.543,15.171 7.115,32.255 1.6,47.829 -5.193,25.812 -19.544,48.876 -40.405,64.939 -5.191,2.785 -7.142,9.251 -4.357,14.442 2.417,4.505 7.689,6.661 12.57,5.142 33.749,-10.432 72.064,-9.792 87.296,1.451 3.409,2.043 5.51,5.711 5.547,9.685 -0.034,4.348 2.574,8.281 6.592,9.941 1.291,0.538 2.676,0.813 4.075,0.811 2.831,0.005 5.548,-1.115 7.552,-3.115 1.451,-1.451 3.072,-3.179 4.843,-5.077 17.553,-22.314 44.553,-35.107 72.939,-34.56 5.891,0 10.667,-4.776 10.667,-10.667 0,-26.432 49.643,-64 96,-64 5.891,0.011 10.675,-4.757 10.686,-10.648 0.005,-2.84 -1.123,-5.565 -3.134,-7.571 -12.117,-12.117 9.493,-45.781 21.867,-60.16 3.838,-4.465 3.332,-11.198 -1.132,-15.039 z"
       style="fill:#4caf50;stroke-width:41.03805161"
       inkscape:connector-curvature="0" />
    <g
       id="g919"
       style="stroke-width:41.03805161">
      <path
         id="path915"
         d="m 138.682,256.731 c -5.891,-0.011 -10.657,-4.796 -10.646,-10.687 0.006,-3.111 1.37,-6.064 3.734,-8.086 4.267,-3.605 104.064,-88.427 152.171,-108.416 5.467,-2.25 11.723,0.357 13.973,5.824 2.25,5.467 -0.357,11.723 -5.824,13.973 v 0 c -45.013,18.688 -145.472,104.064 -146.496,104.917 -1.938,1.617 -4.388,2.494 -6.912,2.475 z"
         style="fill:#388e3c;stroke-width:41.03805161"
         inkscape:connector-curvature="0" />
      <path
         id="path917"
         d="m 385.104,361.2 c -5.462,0.033 -10.066,-4.065 -10.667,-9.493 -0.448,-4.267 -11.115,-103.893 10.411,-152.619 1.99,-5.545 8.098,-8.426 13.643,-6.436 5.545,1.99 8.426,8.098 6.436,13.643 -0.163,0.455 -0.357,0.898 -0.58,1.326 -19.2,43.477 -8.811,140.672 -8.704,141.653 0.648,5.855 -3.573,11.127 -9.428,11.776 0,0 -10e-4,0 -10e-4,0 z"
         style="fill:#388e3c;stroke-width:41.03805161"
         inkscape:connector-curvature="0" />
    </g>
    <path
       id="path921"
       d="m 448.016,0.731 c -28.977,0.092 -54.276,19.642 -61.675,47.659 -1.091,4.114 0.368,8.482 3.712,11.115 l 76.651,60.288 c 1.885,1.483 4.215,2.287 6.613,2.283 1.774,-0.005 3.52,-0.452 5.077,-1.301 C 509.44,104.076 521.07,65.371 504.371,34.325 493.219,13.59 471.559,0.678 448.016,0.731 Z"
       style="fill:#e53935;stroke-width:41.03805161"
       inkscape:connector-curvature="0" />
    <circle
       id="circle923"
       r="74.667"
       cy="96.731003"
       cx="352.01599"
       style="fill:#d32f2f;stroke-width:41.03805161" />
    <circle
       id="circle925"
       r="74.667"
       cy="139.39799"
       cx="416.01599"
       style="fill:#f44336;stroke-width:41.03805161" />
    <g
       id="g927"
       style="stroke-width:41.03805161" />
    <g
       id="g929"
       style="stroke-width:41.03805161" />
    <g
       id="g931"
       style="stroke-width:41.03805161" />
    <g
       id="g933"
       style="stroke-width:41.03805161" />
    <g
       id="g935"
       style="stroke-width:41.03805161" />
    <g
       id="g937"
       style="stroke-width:41.03805161" />
    <g
       id="g939"
       style="stroke-width:41.03805161" />
    <g
       id="g941"
       style="stroke-width:41.03805161" />
    <g
       id="g943"
       style="stroke-width:41.03805161" />
    <g
       id="g945"
       style="stroke-width:41.03805161" />
    <g
       id="g947"
       style="stroke-width:41.03805161" />
    <g
       id="g949"
       style="stroke-width:41.03805161" />
    <g
       id="g951"
       style="stroke-width:41.03805161" />
    <g
       id="g953"
       style="stroke-width:41.03805161" />
    <g
       id="g955"
       style="stroke-width:41.03805161" />
  </g>
</svg>
