<?xml version="1.0" encoding="UTF-8" standalone="no"?>
<svg
   xmlns:dc="http://purl.org/dc/elements/1.1/"
   xmlns:cc="http://creativecommons.org/ns#"
   xmlns:rdf="http://www.w3.org/1999/02/22-rdf-syntax-ns#"
   xmlns:svg="http://www.w3.org/2000/svg"
   xmlns="http://www.w3.org/2000/svg"
   xmlns:sodipodi="http://sodipodi.sourceforge.net/DTD/sodipodi-0.dtd"
   xmlns:inkscape="http://www.inkscape.org/namespaces/inkscape"
   width="48px"
   height="48px"
   viewBox="0 0 48 48"
   version="1.1"
   id="svg18"
   sodipodi:docname="media-flash.svg"
   inkscape:version="0.92.3 (2405546, 2018-03-11)">
  <metadata
     id="metadata22">
    <rdf:RDF>
      <cc:Work
         rdf:about="">
        <dc:format>image/svg+xml</dc:format>
        <dc:type
           rdf:resource="http://purl.org/dc/dcmitype/StillImage" />
      </cc:Work>
    </rdf:RDF>
  </metadata>
  <sodipodi:namedview
     pagecolor="#ffffff"
     bordercolor="#666666"
     borderopacity="1"
     objecttolerance="10"
     gridtolerance="10"
     guidetolerance="10"
     inkscape:pageopacity="0"
     inkscape:pageshadow="2"
     inkscape:window-width="711"
     inkscape:window-height="480"
     id="namedview20"
     showgrid="false"
     inkscape:zoom="9.8333333"
     inkscape:cx="38.784393"
     inkscape:cy="34.493903"
     inkscape:window-x="0"
     inkscape:window-y="0"
     inkscape:window-maximized="0"
     inkscape:current-layer="svg18" />
  <!-- Generator: Sketch 39.1 (31720) - http://www.bohemiancoding.com/sketch -->
  <title
     id="title2">media-flash-48px</title>
  <desc
     id="desc4">Created with Sketch.</desc>
  <defs
     id="defs6" />
  <g
     id="Page-1"
     stroke="none"
     stroke-width="1"
     fill="none"
     fill-rule="evenodd">
    <g
       id="media-flash-48px">
      <path
         d="M8,19 L10,19 L10,13.0317383 L8,13.0317383 L8,5.00106246 C8,4.44819093 8.44972776,4 8.99985155,4 L32.910793,4 C33.4629957,4 34.2380347,4.31754565 34.6330861,4.70071789 L39.2775585,9.20553211 C39.6765519,9.59252792 40,10.3540563 40,10.9123782 L40,13.0317383 L38,13.0317383 L38,16 L40,16 L40,43.0034652 C40,43.5538362 39.5469637,44 39.0029699,44 L32,44 L32,43 L18,43 L18,44 L8.99539757,44 C8.44565467,44 8,43.5447371 8,43.004543 L8,19 Z"
         id="Rectangle-14"
         fill="#57524F" />
      <rect
         id="Rectangle-15"
         fill="#1D1C1B"
         x="12"
         y="10"
         width="24"
         height="29"
         rx="1" />
      <rect
         id="Rectangle-16"
         fill="#DC3C30"
         x="8"
         y="13"
         width="2"
         height="3" />
      <rect
         id="Rectangle-17"
         fill="#FAFAFA"
         x="14"
         y="29"
         width="20"
         height="8"
         rx="1" />
      <rect
         id="rect12"
         fill="#DC3D30"
         x="14"
         y="33"
         width="20"
         height="4"
         rx="1" />
      <path
         d="M14.5517578,18.8876953 L14.5517578,16.6220703 L15.1376953,16.6220703 C15.3004565,17.299157 15.5445947,17.7825506 15.8701172,18.0722656 C16.1956396,18.3619806 16.5471986,18.5068359 16.9248047,18.5068359 C17.204754,18.5068359 17.4277335,18.423829 17.59375,18.2578125 C17.7597665,18.091796 17.8427734,17.8964855 17.8427734,17.671875 C17.8427734,17.512369 17.7906906,17.3528654 17.6865234,17.1933594 C17.5823563,17.0338534 17.3349629,16.8564463 16.9443359,16.6611328 C16.1923791,16.286782 15.6845716,16.0125334 15.4208984,15.8383789 C15.1572252,15.6642244 14.9456388,15.4404311 14.7861328,15.1669922 C14.6266268,14.8935533 14.546875,14.5794289 14.546875,14.2246094 C14.546875,13.6549451 14.7511373,13.185386 15.159668,12.815918 C15.5681987,12.44645 16.0410129,12.2617188 16.578125,12.2617188 C17.1412789,12.2617188 17.6197897,12.4505189 18.0136719,12.828125 C18.0787764,12.7304683 18.1324868,12.5807302 18.1748047,12.3789062 L18.7363281,12.3789062 L18.7363281,14.3320312 L18.1894531,14.3320312 C18.0917964,13.8990864 17.9062514,13.5426446 17.6328125,13.2626953 C17.3593736,12.982746 17.0517595,12.8427734 16.7099609,12.8427734 C16.4527982,12.8427734 16.2485359,12.9143873 16.097168,13.0576172 C15.9458,13.2008471 15.8701172,13.3798817 15.8701172,13.5947266 C15.8701172,13.760743 15.9189448,13.9145501 16.0166016,14.0561523 C16.1142583,14.1977546 16.2460929,14.3149409 16.4121094,14.4077148 C16.5781258,14.5004887 16.9296848,14.6721993 17.4667969,14.9228516 C17.9485701,15.1507173 18.3050119,15.3541658 18.5361328,15.5332031 C18.7672538,15.7122405 18.9503574,15.9376614 19.0854492,16.2094727 C19.220541,16.4812839 19.2880859,16.7750635 19.2880859,17.0908203 C19.2880859,17.6767607 19.0716167,18.1642233 18.6386719,18.5532227 C18.205727,18.942222 17.6897816,19.1367188 17.0908203,19.1367188 C16.7490217,19.1367188 16.4145524,19.0651049 16.0874023,18.921875 C15.7602523,18.7786451 15.4990244,18.5882173 15.3037109,18.3505859 C15.2288408,18.497071 15.1735028,18.6761057 15.1376953,18.8876953 L14.5517578,18.8876953 Z M19.9179688,19 L19.9179688,18.4580078 C20.2662778,18.4580078 20.4973953,18.4034836 20.6113281,18.2944336 C20.725261,18.1853836 20.7822266,17.9697282 20.7822266,17.6474609 L20.7822266,13.7265625 C20.7822266,13.4140609 20.7285162,13.2008469 20.6210938,13.0869141 C20.5136713,12.9729812 20.2792987,12.9160156 19.9179688,12.9160156 L19.9179688,12.3789062 L20.7138672,12.3496094 C21.5146524,12.3170571 22.1429014,12.3007812 22.5986328,12.3007812 C23.3603554,12.3007812 23.9796526,12.3447261 24.456543,12.4326172 C24.9334334,12.5205083 25.3842752,12.7133774 25.809082,13.0112305 C26.2338888,13.3090835 26.561034,13.6948219 26.7905273,14.168457 C27.0200207,14.6420922 27.1347656,15.1637341 27.1347656,15.7333984 C27.1347656,16.3160836 27.0135103,16.8369118 26.7709961,17.2958984 C26.5284819,17.7548851 26.2021505,18.1210924 25.7919922,18.3945312 C25.3818339,18.6679701 24.9570334,18.8372393 24.5175781,18.9023438 C24.0781228,18.9674482 23.3391979,19 22.3007812,19 L19.9179688,19 Z M22.515625,12.8964844 L22.515625,17.4570312 C22.515625,17.7500015 22.5294595,17.9469396 22.5571289,18.0478516 C22.5847983,18.1487635 22.6580398,18.2350257 22.7768555,18.3066406 C22.8956712,18.3782556 23.0787748,18.4140625 23.3261719,18.4140625 C23.9381541,18.4140625 24.3963201,18.1894554 24.7006836,17.7402344 C25.0050471,17.2910134 25.1572266,16.6188196 25.1572266,15.7236328 C25.1572266,15.0009729 25.044923,14.4256206 24.8203125,13.9975586 C24.595702,13.5694966 24.3043638,13.2789721 23.9462891,13.1259766 C23.5882144,12.972981 23.1113311,12.8964844 22.515625,12.8964844 L22.515625,12.8964844 Z"
         id="SD"
         fill="#FFFFFF" />
      <rect
         id="Rectangle-18"
         fill="#FFFFFF"
         x="14"
         y="20"
         width="14"
         height="1" />
    </g>
  </g>
  <g
     id="g1018"
     transform="matrix(0.02474725,0,0,0.02474725,25.993524,4.8619512)"
     style="stroke-width:40.40853882">
    <path
       id="path942"
       d="m 508.709,232.816 c 4.267,-4.062 4.433,-10.814 0.371,-15.08 -1.953,-2.052 -4.643,-3.242 -7.475,-3.309 -21.589,-0.512 -21.589,-30.955 -21.589,-32.213 0.046,-3.935 -2.077,-7.576 -5.525,-9.472 L 371.387,115.995 c -3.813,-2.11 -8.526,-1.687 -11.904,1.067 l -82.645,67.392 c -4.11,3.364 -5.12,9.239 -2.368,13.781 l 25.771,42.667 c 0.482,0.783 1.063,1.5 1.728,2.133 12.109,13.958 18.294,32.09 17.237,50.539 0.05,29.076 -11.725,56.922 -32.619,77.141 -4.266,4.062 -4.432,10.814 -0.37,15.08 1.433,1.505 3.274,2.559 5.298,3.032 15.201,6.461 27.395,18.434 34.133,33.515 14.051,22.273 19.567,48.878 15.531,74.901 -1.866,5.588 1.151,11.63 6.738,13.496 4.881,1.63 10.231,-0.457 12.718,-4.963 17.237,-30.805 45.419,-56.811 64.192,-59.157 3.866,-0.868 7.906,0.336 10.667,3.179 4.062,4.267 10.814,4.433 15.08,0.371 2.052,-1.953 3.242,-4.643 3.309,-7.475 0,-2.133 0,-4.416 0,-6.997 -2.583,-28.224 8.183,-56.032 29.099,-75.157 4.271,-4.057 4.444,-10.809 0.387,-15.08 -0.001,-10e-4 -0.002,-0.002 -0.003,-0.003 -9.698,-15.237 -12.136,-33.99 -6.656,-51.2 4.419,-23.172 15.546,-44.536 31.999,-61.441 z"
       style="fill:#43a047;stroke-width:40.40853882"
       inkscape:connector-curvature="0" />
    <path
       id="path944"
       d="m 337.637,152.646 c -3.649,-3.038 -8.866,-3.299 -12.8,-0.64 L 293.84,105.478 c 0.491,-0.448 1.259,-0.747 1.728,-1.195 4.237,-4.092 4.355,-10.845 0.262,-15.083 -4.093,-4.238 -10.845,-4.355 -15.083,-0.262 -0.089,0.086 -0.176,0.173 -0.262,0.262 -16.939,16.939 -100.907,11.328 -113.067,-0.213 -4.234,-4.096 -10.987,-3.984 -15.083,0.249 -2.057,2.126 -3.138,5.01 -2.986,7.964 -1.579,24.527 -12.225,47.591 -29.867,64.704 -16.885,18.909 -40.794,30.054 -66.133,30.827 -5.891,0.003 -10.664,4.781 -10.662,10.672 0.001,2.075 0.607,4.105 1.744,5.84 6.543,15.171 7.115,32.255 1.6,47.829 -5.193,25.812 -19.544,48.876 -40.405,64.939 -5.191,2.785 -7.142,9.251 -4.357,14.442 2.417,4.505 7.689,6.661 12.57,5.142 33.749,-10.432 72.064,-9.792 87.296,1.451 3.409,2.043 5.51,5.711 5.547,9.685 -0.034,4.348 2.574,8.281 6.592,9.941 1.291,0.538 2.676,0.813 4.075,0.811 2.831,0.005 5.548,-1.115 7.552,-3.115 1.451,-1.451 3.072,-3.179 4.843,-5.077 17.553,-22.314 44.553,-35.107 72.939,-34.56 5.891,0 10.667,-4.776 10.667,-10.667 0,-26.432 49.643,-64 96,-64 5.891,0.011 10.675,-4.757 10.686,-10.648 0.005,-2.84 -1.123,-5.565 -3.134,-7.571 -12.117,-12.117 9.493,-45.781 21.867,-60.16 3.838,-4.465 3.332,-11.198 -1.132,-15.039 z"
       style="fill:#4caf50;stroke-width:40.40853882"
       inkscape:connector-curvature="0" />
    <g
       id="g950"
       style="stroke-width:40.40853882">
      <path
         id="path946"
         d="m 138.682,256.731 c -5.891,-0.011 -10.657,-4.796 -10.646,-10.687 0.006,-3.111 1.37,-6.064 3.734,-8.086 4.267,-3.605 104.064,-88.427 152.171,-108.416 5.467,-2.25 11.723,0.357 13.973,5.824 2.25,5.467 -0.357,11.723 -5.824,13.973 v 0 c -45.013,18.688 -145.472,104.064 -146.496,104.917 -1.938,1.617 -4.388,2.494 -6.912,2.475 z"
         style="fill:#388e3c;stroke-width:40.40853882"
         inkscape:connector-curvature="0" />
      <path
         id="path948"
         d="m 385.104,361.2 c -5.462,0.033 -10.066,-4.065 -10.667,-9.493 -0.448,-4.267 -11.115,-103.893 10.411,-152.619 1.99,-5.545 8.098,-8.426 13.643,-6.436 5.545,1.99 8.426,8.098 6.436,13.643 -0.163,0.455 -0.357,0.898 -0.58,1.326 -19.2,43.477 -8.811,140.672 -8.704,141.653 0.648,5.855 -3.573,11.127 -9.428,11.776 0,0 -10e-4,0 -10e-4,0 z"
         style="fill:#388e3c;stroke-width:40.40853882"
         inkscape:connector-curvature="0" />
    </g>
    <path
       id="path952"
       d="m 448.016,0.731 c -28.977,0.092 -54.276,19.642 -61.675,47.659 -1.091,4.114 0.368,8.482 3.712,11.115 l 76.651,60.288 c 1.885,1.483 4.215,2.287 6.613,2.283 1.774,-0.005 3.52,-0.452 5.077,-1.301 C 509.44,104.076 521.07,65.371 504.371,34.325 493.219,13.59 471.559,0.678 448.016,0.731 Z"
       style="fill:#e53935;stroke-width:40.40853882"
       inkscape:connector-curvature="0" />
    <circle
       id="circle954"
       r="74.667"
       cy="96.731003"
       cx="352.01599"
       style="fill:#d32f2f;stroke-width:40.40853882" />
    <circle
       id="circle956"
       r="74.667"
       cy="139.39799"
       cx="416.01599"
       style="fill:#f44336;stroke-width:40.40853882" />
    <g
       id="g958"
       style="stroke-width:40.40853882" />
    <g
       id="g960"
       style="stroke-width:40.40853882" />
    <g
       id="g962"
       style="stroke-width:40.40853882" />
    <g
       id="g964"
       style="stroke-width:40.40853882" />
    <g
       id="g966"
       style="stroke-width:40.40853882" />
    <g
       id="g968"
       style="stroke-width:40.40853882" />
    <g
       id="g970"
       style="stroke-width:40.40853882" />
    <g
       id="g972"
       style="stroke-width:40.40853882" />
    <g
       id="g974"
       style="stroke-width:40.40853882" />
    <g
       id="g976"
       style="stroke-width:40.40853882" />
    <g
       id="g978"
       style="stroke-width:40.40853882" />
    <g
       id="g980"
       style="stroke-width:40.40853882" />
    <g
       id="g982"
       style="stroke-width:40.40853882" />
    <g
       id="g984"
       style="stroke-width:40.40853882" />
    <g
       id="g986"
       style="stroke-width:40.40853882" />
  </g>
</svg>
