<?xml version="1.0" encoding="UTF-8" standalone="no"?>
<svg
   xmlns:dc="http://purl.org/dc/elements/1.1/"
   xmlns:cc="http://creativecommons.org/ns#"
   xmlns:rdf="http://www.w3.org/1999/02/22-rdf-syntax-ns#"
   xmlns:svg="http://www.w3.org/2000/svg"
   xmlns="http://www.w3.org/2000/svg"
   xmlns:sodipodi="http://sodipodi.sourceforge.net/DTD/sodipodi-0.dtd"
   xmlns:inkscape="http://www.inkscape.org/namespaces/inkscape"
   width="48px"
   height="48px"
   viewBox="0 0 48 48"
   version="1.1"
   id="svg27"
   sodipodi:docname="media-cdr.svg"
   inkscape:version="0.92.3 (2405546, 2018-03-11)">
  <metadata
     id="metadata31">
    <rdf:RDF>
      <cc:Work
         rdf:about="">
        <dc:format>image/svg+xml</dc:format>
        <dc:type
           rdf:resource="http://purl.org/dc/dcmitype/StillImage" />
      </cc:Work>
    </rdf:RDF>
  </metadata>
  <sodipodi:namedview
     pagecolor="#ffffff"
     bordercolor="#666666"
     borderopacity="1"
     objecttolerance="10"
     gridtolerance="10"
     guidetolerance="10"
     inkscape:pageopacity="0"
     inkscape:pageshadow="2"
     inkscape:window-width="1152"
     inkscape:window-height="802"
     id="namedview29"
     showgrid="false"
     inkscape:zoom="4.9166667"
     inkscape:cx="-4.3728814"
     inkscape:cy="24"
     inkscape:window-x="-8"
     inkscape:window-y="-8"
     inkscape:window-maximized="1"
     inkscape:current-layer="svg27" />
  <!-- Generator: Sketch 39.1 (31720) - http://www.bohemiancoding.com/sketch -->
  <title
     id="title2">media-cdr-48px</title>
  <desc
     id="desc4">Created with Sketch.</desc>
  <defs
     id="defs16">
    <linearGradient
       x1="19.5591518%"
       y1="10.6631324%"
       x2="80.9477307%"
       y2="89.1392299%"
       id="linearGradient-1">
      <stop
         stop-color="#D1FF81"
         offset="0%"
         id="stop6" />
      <stop
         stop-color="#99DBF8"
         offset="49.7674143%"
         id="stop8" />
      <stop
         stop-color="#C9ABFF"
         offset="100%"
         id="stop10" />
    </linearGradient>
    <filter
       x="-50%"
       y="-50%"
       width="200%"
       height="200%"
       filterUnits="objectBoundingBox"
       id="filter-2">
      <feGaussianBlur
         stdDeviation="0"
         in="SourceGraphic"
         id="feGaussianBlur13" />
    </filter>
  </defs>
  <g
     id="Page-1"
     stroke="none"
     stroke-width="1"
     fill="none"
     fill-rule="evenodd">
    <g
       id="media-cdr-48px">
      <g
         id="Group-Copy"
         transform="translate(3.000000, 3.000000)">
        <path
           d="M21,42 C32.5979797,42 42,32.5979797 42,21 C42,9.40202025 32.5979797,0 21,0 C9.40202025,0 0,9.40202025 0,21 C0,32.5979797 9.40202025,42 21,42 Z M21,25 C23.209139,25 25,23.209139 25,21 C25,18.790861 23.209139,17 21,17 C18.790861,17 17,18.790861 17,21 C17,23.209139 18.790861,25 21,25 Z"
           id="Combined-Shape"
           fill="url(#linearGradient-1)" />
        <path
           d="M21,31 C26.5228475,31 31,26.5228475 31,21 C31,15.4771525 26.5228475,11 21,11 C15.4771525,11 11,15.4771525 11,21 C11,26.5228475 15.4771525,31 21,31 Z"
           id="path19"
           fill="#50909E"
           opacity="0.178229944" />
        <g
           id="Group-5"
           transform="translate(21.000000, 21.000000) rotate(90.000000) translate(-21.000000, -21.000000) translate(4.500000, 1.000000)"
           fill-opacity="0.2"
           fill="#FFFFFF">
          <path
             d="M12.5138209,40.7258014 L15.8666947,24.0674767 C15.8666947,24.0674767 16.1948474,24.1497208 16.5916138,24.1497208 C16.9883803,24.1497208 17.5022852,23.9801691 17.5022852,23.9801691 L20.8614839,40.6699182 C20.8614839,40.6699182 19.0205125,41.1172977 16.8519855,41.1318148 C14.6834585,41.1463319 12.5138209,40.7258014 12.5138209,40.7258014 Z M12.5059097,-0.503527632 L15.8666947,16.1941028 C15.8666947,16.1941028 16.1948474,16.1118588 16.5916138,16.1118588 C16.9883803,16.1118588 17.5022852,16.2814104 17.5022852,16.2814104 L20.8580744,-0.391399102 C20.8580744,-0.391399102 18.9141011,-0.82808599 16.7785464,-0.856755995 C14.6429918,-0.885426 12.5059097,-0.503527632 12.5059097,-0.503527632 Z"
             id="Combined-Shape-Copy-3"
             filter="url(#filter-2)"
             transform="translate(16.683697, 20.136945) rotate(36.000000) translate(-16.683697, -20.136945) " />
        </g>
      </g>
      <path
         d="M18.28,35.632 C17.62,35.632 17.104,35.854 16.744,36.31 C16.414,36.718 16.252,37.24 16.252,37.876 C16.252,38.512 16.408,39.028 16.732,39.424 C17.086,39.862 17.596,40.084 18.262,40.084 C18.718,40.084 19.114,39.952 19.444,39.694 C19.798,39.418 20.02,39.028 20.116,38.53 L19.642,38.53 C19.558,38.902 19.384,39.184 19.132,39.376 C18.892,39.556 18.604,39.646 18.262,39.646 C17.758,39.646 17.38,39.478 17.116,39.148 C16.864,38.836 16.744,38.41 16.744,37.876 C16.744,37.342 16.87,36.916 17.122,36.592 C17.392,36.244 17.776,36.07 18.274,36.07 C18.61,36.07 18.892,36.148 19.126,36.31 C19.366,36.478 19.522,36.718 19.582,37.03 L20.056,37.03 C19.996,36.604 19.804,36.262 19.48,36.01 C19.156,35.758 18.754,35.632 18.28,35.632 L18.28,35.632 Z M20.8,35.716 L20.8,40 L22.288,40 C22.96,40 23.476,39.802 23.836,39.412 C24.178,39.04 24.352,38.518 24.352,37.858 C24.352,37.186 24.19,36.664 23.872,36.304 C23.524,35.908 23.014,35.716 22.336,35.716 L20.8,35.716 Z M21.292,36.142 L22.258,36.142 C22.822,36.142 23.23,36.286 23.494,36.58 C23.74,36.856 23.866,37.282 23.866,37.858 C23.866,38.416 23.728,38.842 23.464,39.13 C23.182,39.424 22.762,39.574 22.204,39.574 L21.292,39.574 L21.292,36.142 Z M24.904,38.242 L24.904,38.65 L27.934,38.65 L27.934,38.242 L24.904,38.242 Z M28.666,35.716 L28.666,40 L29.158,40 L29.158,38.158 L30.454,38.158 C30.724,38.158 30.928,38.206 31.072,38.314 C31.228,38.422 31.318,38.608 31.342,38.86 L31.396,39.43 C31.414,39.67 31.474,39.856 31.57,40 L32.104,40 C31.978,39.844 31.9,39.634 31.876,39.37 L31.81,38.71 C31.762,38.278 31.534,38.02 31.126,37.93 L31.126,37.918 C31.372,37.858 31.564,37.738 31.708,37.546 C31.84,37.36 31.906,37.15 31.906,36.91 C31.906,36.514 31.774,36.214 31.522,36.01 C31.276,35.812 30.94,35.716 30.514,35.716 L28.666,35.716 Z M29.158,36.142 L30.454,36.142 C30.784,36.142 31.03,36.208 31.186,36.34 C31.33,36.466 31.408,36.664 31.408,36.928 C31.408,37.18 31.33,37.372 31.18,37.51 C31.012,37.654 30.766,37.732 30.454,37.732 L29.158,37.732 L29.158,36.142 Z"
         id="CD-R"
         fill="#FFFFFF" />
    </g>
  </g>
  <g
     id="g1018"
     transform="matrix(0.02474725,0,0,0.02474725,24.783089,5.6644503)"
     style="stroke-width:40.40853882">
    <path
       id="path942"
       d="m 508.709,232.816 c 4.267,-4.062 4.433,-10.814 0.371,-15.08 -1.953,-2.052 -4.643,-3.242 -7.475,-3.309 -21.589,-0.512 -21.589,-30.955 -21.589,-32.213 0.046,-3.935 -2.077,-7.576 -5.525,-9.472 L 371.387,115.995 c -3.813,-2.11 -8.526,-1.687 -11.904,1.067 l -82.645,67.392 c -4.11,3.364 -5.12,9.239 -2.368,13.781 l 25.771,42.667 c 0.482,0.783 1.063,1.5 1.728,2.133 12.109,13.958 18.294,32.09 17.237,50.539 0.05,29.076 -11.725,56.922 -32.619,77.141 -4.266,4.062 -4.432,10.814 -0.37,15.08 1.433,1.505 3.274,2.559 5.298,3.032 15.201,6.461 27.395,18.434 34.133,33.515 14.051,22.273 19.567,48.878 15.531,74.901 -1.866,5.588 1.151,11.63 6.738,13.496 4.881,1.63 10.231,-0.457 12.718,-4.963 17.237,-30.805 45.419,-56.811 64.192,-59.157 3.866,-0.868 7.906,0.336 10.667,3.179 4.062,4.267 10.814,4.433 15.08,0.371 2.052,-1.953 3.242,-4.643 3.309,-7.475 0,-2.133 0,-4.416 0,-6.997 -2.583,-28.224 8.183,-56.032 29.099,-75.157 4.271,-4.057 4.444,-10.809 0.387,-15.08 -0.001,-10e-4 -0.002,-0.002 -0.003,-0.003 -9.698,-15.237 -12.136,-33.99 -6.656,-51.2 4.419,-23.172 15.546,-44.536 31.999,-61.441 z"
       style="fill:#43a047;stroke-width:40.40853882"
       inkscape:connector-curvature="0" />
    <path
       id="path944"
       d="m 337.637,152.646 c -3.649,-3.038 -8.866,-3.299 -12.8,-0.64 L 293.84,105.478 c 0.491,-0.448 1.259,-0.747 1.728,-1.195 4.237,-4.092 4.355,-10.845 0.262,-15.083 -4.093,-4.238 -10.845,-4.355 -15.083,-0.262 -0.089,0.086 -0.176,0.173 -0.262,0.262 -16.939,16.939 -100.907,11.328 -113.067,-0.213 -4.234,-4.096 -10.987,-3.984 -15.083,0.249 -2.057,2.126 -3.138,5.01 -2.986,7.964 -1.579,24.527 -12.225,47.591 -29.867,64.704 -16.885,18.909 -40.794,30.054 -66.133,30.827 -5.891,0.003 -10.664,4.781 -10.662,10.672 0.001,2.075 0.607,4.105 1.744,5.84 6.543,15.171 7.115,32.255 1.6,47.829 -5.193,25.812 -19.544,48.876 -40.405,64.939 -5.191,2.785 -7.142,9.251 -4.357,14.442 2.417,4.505 7.689,6.661 12.57,5.142 33.749,-10.432 72.064,-9.792 87.296,1.451 3.409,2.043 5.51,5.711 5.547,9.685 -0.034,4.348 2.574,8.281 6.592,9.941 1.291,0.538 2.676,0.813 4.075,0.811 2.831,0.005 5.548,-1.115 7.552,-3.115 1.451,-1.451 3.072,-3.179 4.843,-5.077 17.553,-22.314 44.553,-35.107 72.939,-34.56 5.891,0 10.667,-4.776 10.667,-10.667 0,-26.432 49.643,-64 96,-64 5.891,0.011 10.675,-4.757 10.686,-10.648 0.005,-2.84 -1.123,-5.565 -3.134,-7.571 -12.117,-12.117 9.493,-45.781 21.867,-60.16 3.838,-4.465 3.332,-11.198 -1.132,-15.039 z"
       style="fill:#4caf50;stroke-width:40.40853882"
       inkscape:connector-curvature="0" />
    <g
       id="g950"
       style="stroke-width:40.40853882">
      <path
         id="path946"
         d="m 138.682,256.731 c -5.891,-0.011 -10.657,-4.796 -10.646,-10.687 0.006,-3.111 1.37,-6.064 3.734,-8.086 4.267,-3.605 104.064,-88.427 152.171,-108.416 5.467,-2.25 11.723,0.357 13.973,5.824 2.25,5.467 -0.357,11.723 -5.824,13.973 v 0 c -45.013,18.688 -145.472,104.064 -146.496,104.917 -1.938,1.617 -4.388,2.494 -6.912,2.475 z"
         style="fill:#388e3c;stroke-width:40.40853882"
         inkscape:connector-curvature="0" />
      <path
         id="path948"
         d="m 385.104,361.2 c -5.462,0.033 -10.066,-4.065 -10.667,-9.493 -0.448,-4.267 -11.115,-103.893 10.411,-152.619 1.99,-5.545 8.098,-8.426 13.643,-6.436 5.545,1.99 8.426,8.098 6.436,13.643 -0.163,0.455 -0.357,0.898 -0.58,1.326 -19.2,43.477 -8.811,140.672 -8.704,141.653 0.648,5.855 -3.573,11.127 -9.428,11.776 0,0 -10e-4,0 -10e-4,0 z"
         style="fill:#388e3c;stroke-width:40.40853882"
         inkscape:connector-curvature="0" />
    </g>
    <path
       id="path952"
       d="m 448.016,0.731 c -28.977,0.092 -54.276,19.642 -61.675,47.659 -1.091,4.114 0.368,8.482 3.712,11.115 l 76.651,60.288 c 1.885,1.483 4.215,2.287 6.613,2.283 1.774,-0.005 3.52,-0.452 5.077,-1.301 C 509.44,104.076 521.07,65.371 504.371,34.325 493.219,13.59 471.559,0.678 448.016,0.731 Z"
       style="fill:#e53935;stroke-width:40.40853882"
       inkscape:connector-curvature="0" />
    <circle
       id="circle954"
       r="74.667"
       cy="96.731003"
       cx="352.01599"
       style="fill:#d32f2f;stroke-width:40.40853882" />
    <circle
       id="circle956"
       r="74.667"
       cy="139.39799"
       cx="416.01599"
       style="fill:#f44336;stroke-width:40.40853882" />
    <g
       id="g958"
       style="stroke-width:40.40853882" />
    <g
       id="g960"
       style="stroke-width:40.40853882" />
    <g
       id="g962"
       style="stroke-width:40.40853882" />
    <g
       id="g964"
       style="stroke-width:40.40853882" />
    <g
       id="g966"
       style="stroke-width:40.40853882" />
    <g
       id="g968"
       style="stroke-width:40.40853882" />
    <g
       id="g970"
       style="stroke-width:40.40853882" />
    <g
       id="g972"
       style="stroke-width:40.40853882" />
    <g
       id="g974"
       style="stroke-width:40.40853882" />
    <g
       id="g976"
       style="stroke-width:40.40853882" />
    <g
       id="g978"
       style="stroke-width:40.40853882" />
    <g
       id="g980"
       style="stroke-width:40.40853882" />
    <g
       id="g982"
       style="stroke-width:40.40853882" />
    <g
       id="g984"
       style="stroke-width:40.40853882" />
    <g
       id="g986"
       style="stroke-width:40.40853882" />
  </g>
</svg>
