<?xml version="1.0" encoding="UTF-8" standalone="no"?>
<!-- Created with Inkscape (http://www.inkscape.org/) -->

<svg
   xmlns:dc="http://purl.org/dc/elements/1.1/"
   xmlns:cc="http://creativecommons.org/ns#"
   xmlns:rdf="http://www.w3.org/1999/02/22-rdf-syntax-ns#"
   xmlns:svg="http://www.w3.org/2000/svg"
   xmlns="http://www.w3.org/2000/svg"
   xmlns:sodipodi="http://sodipodi.sourceforge.net/DTD/sodipodi-0.dtd"
   xmlns:inkscape="http://www.inkscape.org/namespaces/inkscape"
   width="32"
   height="32"
   viewBox="0 0 32 32.000001"
   id="svg4244"
   version="1.1"
   inkscape:version="0.91 r13725"
   sodipodi:docname="18.svg">
  <defs
     id="defs4246" />
  <sodipodi:namedview
     id="base"
     pagecolor="#ffffff"
     bordercolor="#666666"
     borderopacity="1.0"
     inkscape:pageopacity="0.0"
     inkscape:pageshadow="2"
     inkscape:zoom="5.6"
     inkscape:cx="-0.93589788"
     inkscape:cy="31.511269"
     inkscape:document-units="px"
     inkscape:current-layer="g4783"
     showgrid="true"
     units="px"
     inkscape:window-width="1366"
     inkscape:window-height="705"
     inkscape:window-x="-8"
     inkscape:window-y="-8"
     inkscape:window-maximized="1"
     inkscape:snap-bbox="true"
     inkscape:bbox-paths="true"
     inkscape:bbox-nodes="true"
     inkscape:snap-bbox-edge-midpoints="true"
     inkscape:snap-bbox-midpoints="true">
    <inkscape:grid
       type="xygrid"
       id="grid4252" />
  </sodipodi:namedview>
  <metadata
     id="metadata4249">
    <rdf:RDF>
      <cc:Work
         rdf:about="">
        <dc:format>image/svg+xml</dc:format>
        <dc:type
           rdf:resource="http://purl.org/dc/dcmitype/StillImage" />
        <dc:title></dc:title>
      </cc:Work>
    </rdf:RDF>
  </metadata>
  <g
     inkscape:label="Layer 1"
     inkscape:groupmode="layer"
     id="layer1"
     transform="translate(0,-1020.3622)">
    <g
       id="g4783"
       transform="translate(-4.2590071,-3.0333347)">
      <g
         id="g7039">
        <path
           inkscape:connector-curvature="0"
           id="path6042"
           d="m 20.259766,1025.3945 c -6.603728,0 -12.0000004,5.3963 -12.0000004,12 0,6.6038 5.3962724,12 12.0000004,12 6.603727,0 12,-5.3962 12,-12 0,-6.6037 -5.396273,-12 -12,-12 z m 0,4 c 4.441967,0 8,3.5581 8,8 0,4.442 -3.558033,8 -8,8 -4.441968,0 -8,-3.558 -8,-8 0,-4.4419 3.558032,-8 8,-8 z"
           style="color:#000000;font-style:normal;font-variant:normal;font-weight:normal;font-stretch:normal;font-size:medium;line-height:normal;font-family:sans-serif;text-indent:0;text-align:start;text-decoration:none;text-decoration-line:none;text-decoration-style:solid;text-decoration-color:#000000;letter-spacing:normal;word-spacing:normal;text-transform:none;direction:ltr;block-progression:tb;writing-mode:lr-tb;baseline-shift:baseline;text-anchor:start;white-space:normal;clip-rule:nonzero;display:inline;overflow:visible;visibility:visible;opacity:1;isolation:auto;mix-blend-mode:normal;color-interpolation:sRGB;color-interpolation-filters:linearRGB;solid-color:#000000;solid-opacity:1;fill:#00c379;fill-opacity:1;fill-rule:nonzero;stroke:none;stroke-width:3.99999976;stroke-linecap:round;stroke-linejoin:round;stroke-miterlimit:4;stroke-dasharray:none;stroke-dashoffset:0;stroke-opacity:1;color-rendering:auto;image-rendering:auto;shape-rendering:auto;text-rendering:auto;enable-background:accumulate" />
        <path
           id="rect6227"
           d="m 1037.3955,-33.259007 c 0.554,0 1,0.446 1,1 l 0,4 c 0,0.554 -0.446,1 -1,1 -0.554,0 -1,-0.446 -1,-1 l 0,-4 c 0,-0.554 0.446,-1 1,-1 z"
           style="fill:#ff9a00;fill-opacity:1;stroke:none;stroke-width:2;stroke-linecap:round;stroke-linejoin:round;stroke-opacity:1"
           transform="matrix(0,1,-1,0,0,0)" />
        <path
           id="rect6229"
           d="m 1037.3955,-13.259007 c 0.554,0 1,0.446 1,1 l 0,3.9999995 c 0,0.554 -0.446,1 -1,1 -0.554,0 -1,-0.446 -1,-1 l 0,-3.9999995 c 0,-0.554 0.446,-1 1,-1 z"
           style="fill:#ff9a00;fill-opacity:1;stroke:none;stroke-width:2;stroke-linecap:round;stroke-linejoin:round;stroke-opacity:1"
           transform="matrix(0,1,-1,0,0,0)" />
        <path
           id="rect6231"
           d="m 719.22412,-760.87469 c 0.554,0 1,0.446 1,1 l 0,4 c 0,0.554 -0.446,1 -1,1 -0.554,0 -1,-0.446 -1,-1 l 0,-4 c 0,-0.554 0.446,-1 1,-1 z"
           style="fill:#ff9a00;fill-opacity:1;stroke:none;stroke-width:2;stroke-linecap:round;stroke-linejoin:round;stroke-opacity:1"
           transform="matrix(-0.70710678,0.70710678,-0.70710678,-0.70710678,0,0)" />
        <path
           id="rect6233"
           d="m 719.22412,-740.87469 c 0.554,0 1,0.446 1,1 l 0,4 c 0,0.554 -0.446,1 -1,1 -0.554,0 -1,-0.446 -1,-1 l 0,-4 c 0,-0.554 0.446,-1 1,-1 z"
           style="fill:#ff9a00;fill-opacity:1;stroke:none;stroke-width:2;stroke-linecap:round;stroke-linejoin:round;stroke-opacity:1"
           transform="matrix(-0.70710678,0.70710678,-0.70710678,-0.70710678,0,0)" />
        <path
           id="rect6235"
           d="m -747.87469,-732.22412 c 0.554,0 1,0.446 1,1 l 0,4 c 0,0.554 -0.446,1 -1,1 -0.554,0 -1,-0.446 -1,-1 l 0,-4 c 0,-0.554 0.446,-1 1,-1 z"
           style="fill:#ff9a00;fill-opacity:1;stroke:none;stroke-width:2;stroke-linecap:round;stroke-linejoin:round;stroke-opacity:1"
           transform="matrix(-0.70710678,-0.70710678,0.70710678,-0.70710678,0,0)" />
        <path
           id="rect6237"
           d="m -747.87469,-712.22412 c 0.554,0 1,0.446 1,1 l 0,4 c 0,0.554 -0.446,1 -1,1 -0.554,0 -1,-0.446 -1,-1 l 0,-4 c 0,-0.554 0.446,-1 1,-1 z"
           style="fill:#ff9a00;fill-opacity:1;stroke:none;stroke-width:2;stroke-linecap:round;stroke-linejoin:round;stroke-opacity:1"
           transform="matrix(-0.70710678,-0.70710678,0.70710678,-0.70710678,0,0)" />
        <path
           id="rect6221"
           d="m 20.259007,1024.3955 c 0.554,0 1,0.446 1,1 l 0,4 c 0,0.554 -0.446,1 -1,1 -0.554,0 -1,-0.446 -1,-1 l 0,-4 c 0,-0.554 0.446,-1 1,-1 z"
           style="fill:#ff9a00;fill-opacity:1;stroke:none;stroke-width:2;stroke-linecap:round;stroke-linejoin:round;stroke-opacity:1" />
        <path
           id="circle6241"
           d="m 395.27863,949.76257 a 1,1 0 0 1 -1,1 1,1 0 0 1 -1,-1 1,1 0 0 1 1,-1 1,1 0 0 1 1,1 z"
           style="fill:#006ef4;fill-opacity:1;stroke:none;stroke-width:2;stroke-linecap:round;stroke-linejoin:round;stroke-opacity:1"
           transform="matrix(0.93223223,0.36186056,-0.36186056,0.93223223,0,0)" />
        <path
           id="circle6245"
           d="m 958.45172,389.85754 a 1,1 0 0 1 -1,1 1,1 0 0 1 -1,-1 1,1 0 0 1 1,-1 1,1 0 0 1 1,1 z"
           style="fill:#006ef4;fill-opacity:1;stroke:none;stroke-width:2;stroke-linecap:round;stroke-linejoin:round;stroke-opacity:1"
           transform="matrix(0.40331368,0.91506179,-0.91506179,0.40331368,0,0)" />
        <path
           id="circle6247"
           d="m 958.45172,409.85754 a 1,1 0 0 1 -1,1 1,1 0 0 1 -1,-1 1,1 0 0 1 1,-1 1,1 0 0 1 1,1 z"
           style="fill:#006ef4;fill-opacity:1;stroke:none;stroke-width:2;stroke-linecap:round;stroke-linejoin:round;stroke-opacity:1"
           transform="matrix(0.40331368,0.91506179,-0.91506179,0.40331368,0,0)" />
        <path
           id="circle6249"
           d="m 960.76257,-404.27863 a 1,1 0 0 1 -1,1 1,1 0 0 1 -1,-1 1,1 0 0 1 1,-1 1,1 0 0 1 1,1 z"
           style="fill:#006ef4;fill-opacity:1;stroke:none;stroke-width:2;stroke-linecap:round;stroke-linejoin:round;stroke-opacity:1"
           transform="matrix(-0.36186056,0.93223223,-0.93223223,-0.36186056,0,0)" />
        <path
           id="circle6251"
           d="m 960.76257,-384.27863 a 1,1 0 0 1 -1,1 1,1 0 0 1 -1,-1 1,1 0 0 1 1,-1 1,1 0 0 1 1,1 z"
           style="fill:#006ef4;fill-opacity:1;stroke:none;stroke-width:2;stroke-linecap:round;stroke-linejoin:round;stroke-opacity:1"
           transform="matrix(-0.36186056,0.93223223,-0.93223223,-0.36186056,0,0)" />
        <path
           id="circle6255"
           d="m 400.85754,-947.45172 a 1,1 0 0 1 -1,1 1,1 0 0 1 -1,-1 1,1 0 0 1 1,-1 1,1 0 0 1 1,1 z"
           style="fill:#006ef4;fill-opacity:1;stroke:none;stroke-width:2;stroke-linecap:round;stroke-linejoin:round;stroke-opacity:1"
           transform="matrix(-0.91506179,0.40331368,-0.40331368,-0.91506179,0,0)" />
        <path
           sodipodi:nodetypes="csccccc"
           inkscape:connector-curvature="0"
           id="path6104"
           d="m 14.398041,1049.7061 c -0.759361,-0.7594 -1.139042,-1.7546 -1.139042,-2.7498 0,-0.9954 0.379681,-1.9906 1.139042,-2.7499 l 5.860972,1.4074 0,1.3425 0,1.375 c -1.953657,0.4582 -5.444445,1.7914 -5.860972,1.3748 z"
           style="fill:#e6001f;fill-opacity:1;stroke:none;stroke-width:4;stroke-linecap:round;stroke-linejoin:round;stroke-opacity:1" />
        <path
           style="fill:#e6001f;fill-opacity:1;stroke:none;stroke-width:4;stroke-linecap:round;stroke-linejoin:round;stroke-opacity:1"
           d="m 26.119973,1049.7061 c 0.759361,-0.7594 1.139042,-1.7546 1.139042,-2.7498 0,-0.9954 -0.379681,-1.9906 -1.139042,-2.7499 l -5.860973,1.4074 0,1.3425 0,1.375 c 1.953658,0.4582 5.444446,1.7914 5.860973,1.3748 z"
           id="path6110"
           inkscape:connector-curvature="0"
           sodipodi:nodetypes="csccccc" />
        <path
           inkscape:connector-curvature="0"
           id="path6155"
           d="m 18.172937,1046.0267 a 1.0001,1.0001 0 0 0 -0.900391,0.6562 c -0.441293,1.2158 -0.899111,2.1266 -1.519531,2.9317 0.687141,-0.1344 1.637087,-0.4185 2.605469,-0.7129 0.107158,-0.21 0.215831,-0.4178 0.3125,-0.6367 l 0.654297,0.246 c -0.01777,0.043 -0.04396,0.082 -0.0625,0.125 0.496741,-0.147 0.990959,-0.2916 1.396484,-0.3867 l 0,-1.3711 -2.09375,-0.789 a 1.0001,1.0001 0 0 0 -0.392578,-0.062 z"
           style="color:#000000;font-style:normal;font-variant:normal;font-weight:normal;font-stretch:normal;font-size:medium;line-height:normal;font-family:sans-serif;text-indent:0;text-align:start;text-decoration:none;text-decoration-line:none;text-decoration-style:solid;text-decoration-color:#000000;letter-spacing:normal;word-spacing:normal;text-transform:none;direction:ltr;block-progression:tb;writing-mode:lr-tb;baseline-shift:baseline;text-anchor:start;white-space:normal;clip-rule:nonzero;display:inline;overflow:visible;visibility:visible;opacity:1;isolation:auto;mix-blend-mode:normal;color-interpolation:sRGB;color-interpolation-filters:linearRGB;solid-color:#000000;solid-opacity:1;fill:#990012;fill-opacity:1;fill-rule:nonzero;stroke:none;stroke-width:2;stroke-linecap:round;stroke-linejoin:round;stroke-miterlimit:4;stroke-dasharray:none;stroke-dashoffset:1.5;stroke-opacity:1;color-rendering:auto;image-rendering:auto;shape-rendering:auto;text-rendering:auto;enable-background:accumulate" />
        <path
           style="color:#000000;clip-rule:nonzero;display:inline;overflow:visible;visibility:visible;opacity:1;isolation:auto;mix-blend-mode:normal;color-interpolation:sRGB;color-interpolation-filters:linearRGB;solid-color:#000000;solid-opacity:1;fill:#e6001f;fill-opacity:1;fill-rule:nonzero;stroke:none;stroke-width:1.9032743;stroke-linecap:round;stroke-linejoin:round;stroke-miterlimit:4;stroke-dasharray:none;stroke-dashoffset:1.5;stroke-opacity:1;color-rendering:auto;image-rendering:auto;shape-rendering:auto;text-rendering:auto;enable-background:accumulate"
           d="m 17.812259,1047.1063 2.483512,0.9346 c -0.888988,2.3018 -1.501243,3.6678 -4.553249,5.8042 l -0.231983,-1.3593 -2.251524,0.4247 c 2.424031,-1.6822 3.601442,-3.182 4.553244,-5.8042 z"
           id="path6116"
           inkscape:connector-curvature="0"
           sodipodi:nodetypes="cccccc" />
        <path
           style="fill:#6e0012;fill-opacity:1;stroke:none;stroke-width:4;stroke-linecap:round;stroke-linejoin:round;stroke-opacity:1"
           d="m 20.259,1045.6138 c 0,0 4.831944,0.3753 5.374312,0.2303 0.542369,-0.1454 0.864229,-0.7029 0.718908,-1.2452 -0.145323,-0.5423 -0.702816,-0.8642 -1.245184,-0.7188 -0.542369,0.1452 -4.848036,1.7337 -4.848036,1.7337 z"
           id="path6112"
           inkscape:connector-curvature="0"
           sodipodi:nodetypes="csssc" />
        <path
           sodipodi:nodetypes="csssc"
           inkscape:connector-curvature="0"
           id="path6088"
           d="m 20.259013,1045.6138 c 0,0 -4.831943,0.3753 -5.374312,0.2303 -0.542368,-0.1454 -0.864229,-0.7029 -0.718907,-1.2452 0.145323,-0.5423 0.702815,-0.8642 1.245184,-0.7188 0.542368,0.1452 4.848035,1.7337 4.848035,1.7337 z"
           style="fill:#6e0012;fill-opacity:1;stroke:none;stroke-width:4;stroke-linecap:round;stroke-linejoin:round;stroke-opacity:1" />
        <path
           inkscape:connector-curvature="0"
           id="circle6147"
           d="m 17.811749,1047.1068 c -0.142147,0.3916 -0.291653,0.7518 -0.447265,1.0977 0.300425,0.937 1.047017,1.6724 1.992187,1.9531 0.311998,-0.5677 0.567954,-1.1844 0.833985,-1.8653 -6.72e-4,0 -0.0013,0 -0.002,0 -0.42895,0 -0.775606,-0.2614 -0.91211,-0.6347 l -1.464844,-0.5508 z"
           style="color:#000000;font-style:normal;font-variant:normal;font-weight:normal;font-stretch:normal;font-size:medium;line-height:normal;font-family:sans-serif;text-indent:0;text-align:start;text-decoration:none;text-decoration-line:none;text-decoration-style:solid;text-decoration-color:#000000;letter-spacing:normal;word-spacing:normal;text-transform:none;direction:ltr;block-progression:tb;writing-mode:lr-tb;baseline-shift:baseline;text-anchor:start;white-space:normal;clip-rule:nonzero;display:inline;overflow:visible;visibility:visible;opacity:1;isolation:auto;mix-blend-mode:normal;color-interpolation:sRGB;color-interpolation-filters:linearRGB;solid-color:#000000;solid-opacity:1;fill:#990012;fill-opacity:1;fill-rule:nonzero;stroke:none;stroke-width:2;stroke-linecap:round;stroke-linejoin:round;stroke-miterlimit:4;stroke-dasharray:none;stroke-dashoffset:1.5;stroke-opacity:1;color-rendering:auto;image-rendering:auto;shape-rendering:auto;text-rendering:auto;enable-background:accumulate" />
        <path
           style="color:#000000;font-style:normal;font-variant:normal;font-weight:normal;font-stretch:normal;font-size:medium;line-height:normal;font-family:sans-serif;text-indent:0;text-align:start;text-decoration:none;text-decoration-line:none;text-decoration-style:solid;text-decoration-color:#000000;letter-spacing:normal;word-spacing:normal;text-transform:none;direction:ltr;block-progression:tb;writing-mode:lr-tb;baseline-shift:baseline;text-anchor:start;white-space:normal;clip-rule:nonzero;display:inline;overflow:visible;visibility:visible;opacity:1;isolation:auto;mix-blend-mode:normal;color-interpolation:sRGB;color-interpolation-filters:linearRGB;solid-color:#000000;solid-opacity:1;fill:#990012;fill-opacity:1;fill-rule:nonzero;stroke:none;stroke-width:2;stroke-linecap:round;stroke-linejoin:round;stroke-miterlimit:4;stroke-dasharray:none;stroke-dashoffset:1.5;stroke-opacity:1;color-rendering:auto;image-rendering:auto;shape-rendering:auto;text-rendering:auto;enable-background:accumulate"
           d="m 22.182843,1045.9798 a 1.0001,1.0001 0 0 1 0.900391,0.6562 c 0.441293,1.2158 0.899111,2.1266 1.519531,2.9317 -0.687141,-0.1344 -1.637087,-0.4185 -2.605469,-0.7129 -0.107158,-0.21 -0.215831,-0.4178 -0.3125,-0.6367 l -0.654297,0.246 c 0.01777,0.043 0.04396,0.082 0.0625,0.125 -0.496741,-0.147 -0.990959,-0.2916 -1.396484,-0.3867 l 0,-1.3711 2.09375,-0.789 a 1.0001,1.0001 0 0 1 0.392578,-0.062 z"
           id="path6162"
           inkscape:connector-curvature="0" />
        <path
           sodipodi:nodetypes="cccccc"
           inkscape:connector-curvature="0"
           id="path6164"
           d="m 22.705771,1047.1063 -2.483512,0.9346 c 0.888988,2.3018 1.501243,3.6678 4.553249,5.8042 l 0.231983,-1.3593 2.251524,0.4247 c -2.424031,-1.6822 -3.601442,-3.182 -4.553244,-5.8042 z"
           style="color:#000000;clip-rule:nonzero;display:inline;overflow:visible;visibility:visible;opacity:1;isolation:auto;mix-blend-mode:normal;color-interpolation:sRGB;color-interpolation-filters:linearRGB;solid-color:#000000;solid-opacity:1;fill:#e6001f;fill-opacity:1;fill-rule:nonzero;stroke:none;stroke-width:1.9032743;stroke-linecap:round;stroke-linejoin:round;stroke-miterlimit:4;stroke-dasharray:none;stroke-dashoffset:1.5;stroke-opacity:1;color-rendering:auto;image-rendering:auto;shape-rendering:auto;text-rendering:auto;enable-background:accumulate" />
        <path
           inkscape:connector-curvature="0"
           id="circle6176"
           d="m 22.706281,1047.1068 -1.626954,0.6113 c -0.134521,0.3024 -0.418383,0.5045 -0.763671,0.5489 0.264057,0.6768 0.519692,1.2875 0.826171,1.8515 0.946542,-0.3262 1.68214,-1.1109 1.929688,-2.0898 -0.126313,-0.292 -0.247721,-0.5982 -0.365234,-0.9219 z"
           style="color:#000000;font-style:normal;font-variant:normal;font-weight:normal;font-stretch:normal;font-size:medium;line-height:normal;font-family:sans-serif;text-indent:0;text-align:start;text-decoration:none;text-decoration-line:none;text-decoration-style:solid;text-decoration-color:#000000;letter-spacing:normal;word-spacing:normal;text-transform:none;direction:ltr;block-progression:tb;writing-mode:lr-tb;baseline-shift:baseline;text-anchor:start;white-space:normal;clip-rule:nonzero;display:inline;overflow:visible;visibility:visible;opacity:1;isolation:auto;mix-blend-mode:normal;color-interpolation:sRGB;color-interpolation-filters:linearRGB;solid-color:#000000;solid-opacity:1;fill:#990012;fill-opacity:1;fill-rule:nonzero;stroke:none;stroke-width:2;stroke-linecap:round;stroke-linejoin:round;stroke-miterlimit:4;stroke-dasharray:none;stroke-dashoffset:1.5;stroke-opacity:1;color-rendering:auto;image-rendering:auto;shape-rendering:auto;text-rendering:auto;enable-background:accumulate" />
        <path
           inkscape:connector-curvature="0"
           style="fill:#990012;fill-opacity:1;stroke:none;stroke-width:4;stroke-linecap:round;stroke-linejoin:round;stroke-opacity:1"
           d="m 20.259015,1045.6146 c 0,0 -1.274072,0.097 -2.589844,0.1738 -0.276169,0.4471 -0.449219,0.9617 -0.449218,1.5215 0,0.6431 0.214912,1.236 0.568359,1.7246 0.882048,-0.2679 1.771159,-0.539 2.470703,-0.7031 0.670076,0.1572 1.515619,0.4147 2.361328,0.6719 0.337956,-0.482 0.539063,-1.0659 0.539063,-1.6934 0,-0.5622 -0.175296,-1.0803 -0.453125,-1.5293 -1.254502,-0.075 -2.447266,-0.166 -2.447266,-0.166 z m -0.07031,0.7051 c 0.558537,0 0.990234,0.4317 0.990234,0.9902 0,0.5586 -0.431695,0.9903 -0.990234,0.9903 -0.558539,0 -0.988282,-0.4317 -0.988282,-0.9903 0,-0.5585 0.429742,-0.9902 0.988282,-0.9902 z"
           id="path6130" />
        <path
           id="ellipse6114"
           d="m 22.169828,1047.3104 a 1.9801806,1.9801806 0 0 1 -1.98018,1.9802 1.9801806,1.9801806 0 0 1 -1.980181,-1.9802 1.9801806,1.9801806 0 0 1 1.980181,-1.9802 1.9801806,1.9801806 0 0 1 1.98018,1.9802 z"
           style="color:#000000;clip-rule:nonzero;display:inline;overflow:visible;visibility:visible;opacity:1;isolation:auto;mix-blend-mode:normal;color-interpolation:sRGB;color-interpolation-filters:linearRGB;solid-color:#000000;solid-opacity:1;fill:#e6001f;fill-opacity:1;fill-rule:nonzero;stroke:none;stroke-width:1.9032743;stroke-linecap:round;stroke-linejoin:round;stroke-miterlimit:4;stroke-dasharray:none;stroke-dashoffset:1.5;stroke-opacity:1;color-rendering:auto;image-rendering:auto;shape-rendering:auto;text-rendering:auto;enable-background:accumulate" />
      </g>
    </g>
  </g>
</svg>
