<?xml version="1.0" encoding="UTF-8" standalone="no"?>
<!-- Created with Inkscape (http://www.inkscape.org/) -->

<svg
   xmlns:dc="http://purl.org/dc/elements/1.1/"
   xmlns:cc="http://creativecommons.org/ns#"
   xmlns:rdf="http://www.w3.org/1999/02/22-rdf-syntax-ns#"
   xmlns:svg="http://www.w3.org/2000/svg"
   xmlns="http://www.w3.org/2000/svg"
   xmlns:sodipodi="http://sodipodi.sourceforge.net/DTD/sodipodi-0.dtd"
   xmlns:inkscape="http://www.inkscape.org/namespaces/inkscape"
   width="32"
   height="32"
   viewBox="0 0 32 32.000001"
   id="svg4244"
   version="1.1"
   inkscape:version="0.91 r13725"
   sodipodi:docname="9.svg">
  <defs
     id="defs4246" />
  <sodipodi:namedview
     id="base"
     pagecolor="#ffffff"
     bordercolor="#666666"
     borderopacity="1.0"
     inkscape:pageopacity="0.0"
     inkscape:pageshadow="2"
     inkscape:zoom="5.6"
     inkscape:cx="-18.499837"
     inkscape:cy="-5.2109571"
     inkscape:document-units="px"
     inkscape:current-layer="g4783"
     showgrid="true"
     units="px"
     inkscape:window-width="1366"
     inkscape:window-height="705"
     inkscape:window-x="-8"
     inkscape:window-y="-8"
     inkscape:window-maximized="1"
     inkscape:snap-bbox="true"
     inkscape:bbox-paths="true"
     inkscape:bbox-nodes="true"
     inkscape:snap-bbox-edge-midpoints="true"
     inkscape:snap-bbox-midpoints="true">
    <inkscape:grid
       type="xygrid"
       id="grid4252" />
  </sodipodi:namedview>
  <metadata
     id="metadata4249">
    <rdf:RDF>
      <cc:Work
         rdf:about="">
        <dc:format>image/svg+xml</dc:format>
        <dc:type
           rdf:resource="http://purl.org/dc/dcmitype/StillImage" />
        <dc:title></dc:title>
      </cc:Work>
    </rdf:RDF>
  </metadata>
  <g
     inkscape:label="Layer 1"
     inkscape:groupmode="layer"
     id="layer1"
     transform="translate(0,-1020.3622)">
    <g
       id="g4783"
       transform="translate(-4.2590071,-3.0333347)">
      <g
         id="g6085">
        <path
           inkscape:connector-curvature="0"
           id="path5482"
           d="m 9.765625,1040.8945 a 0.50005,0.50005 0 1 0 0,1 l 2.300781,0 a 0.50005,0.50005 0 1 0 0,-1 l -2.300781,0 z"
           style="color:#000000;font-style:normal;font-variant:normal;font-weight:normal;font-stretch:normal;font-size:medium;line-height:normal;font-family:sans-serif;text-indent:0;text-align:start;text-decoration:none;text-decoration-line:none;text-decoration-style:solid;text-decoration-color:#000000;letter-spacing:normal;word-spacing:normal;text-transform:none;direction:ltr;block-progression:tb;writing-mode:lr-tb;baseline-shift:baseline;text-anchor:start;white-space:normal;clip-rule:nonzero;display:inline;overflow:visible;visibility:visible;opacity:1;isolation:auto;mix-blend-mode:normal;color-interpolation:sRGB;color-interpolation-filters:linearRGB;solid-color:#000000;solid-opacity:1;fill:#b48966;fill-opacity:1;fill-rule:evenodd;stroke:none;stroke-width:1px;stroke-linecap:round;stroke-linejoin:round;stroke-miterlimit:4;stroke-dasharray:none;stroke-dashoffset:0;stroke-opacity:1;color-rendering:auto;image-rendering:auto;shape-rendering:auto;text-rendering:auto;enable-background:accumulate" />
        <path
           inkscape:connector-curvature="0"
           id="path5480"
           d="m 9.7539062,1038.8945 a 0.50005,0.50005 0 0 0 -0.3007812,0.8946 l 4.988281,3.9941 a 0.50022456,0.50022456 0 1 0 0.625,-0.7812 l -4.988281,-3.9922 a 0.50005,0.50005 0 0 0 -0.3242188,-0.1153 z"
           style="color:#000000;font-style:normal;font-variant:normal;font-weight:normal;font-stretch:normal;font-size:medium;line-height:normal;font-family:sans-serif;text-indent:0;text-align:start;text-decoration:none;text-decoration-line:none;text-decoration-style:solid;text-decoration-color:#000000;letter-spacing:normal;word-spacing:normal;text-transform:none;direction:ltr;block-progression:tb;writing-mode:lr-tb;baseline-shift:baseline;text-anchor:start;white-space:normal;clip-rule:nonzero;display:inline;overflow:visible;visibility:visible;opacity:1;isolation:auto;mix-blend-mode:normal;color-interpolation:sRGB;color-interpolation-filters:linearRGB;solid-color:#000000;solid-opacity:1;fill:#b48966;fill-opacity:1;fill-rule:evenodd;stroke:none;stroke-width:1px;stroke-linecap:round;stroke-linejoin:round;stroke-miterlimit:4;stroke-dasharray:none;stroke-dashoffset:0;stroke-opacity:1;color-rendering:auto;image-rendering:auto;shape-rendering:auto;text-rendering:auto;enable-background:accumulate" />
        <path
           inkscape:connector-curvature="0"
           id="path5484"
           d="m 11.751953,1038.3887 a 0.50005,0.50005 0 0 0 -0.492187,0.5058 l 0,2 a 0.50005,0.50005 0 1 0 1,0 l 0,-2 a 0.50005,0.50005 0 0 0 -0.507813,-0.5058 z"
           style="color:#000000;font-style:normal;font-variant:normal;font-weight:normal;font-stretch:normal;font-size:medium;line-height:normal;font-family:sans-serif;text-indent:0;text-align:start;text-decoration:none;text-decoration-line:none;text-decoration-style:solid;text-decoration-color:#000000;letter-spacing:normal;word-spacing:normal;text-transform:none;direction:ltr;block-progression:tb;writing-mode:lr-tb;baseline-shift:baseline;text-anchor:start;white-space:normal;clip-rule:nonzero;display:inline;overflow:visible;visibility:visible;opacity:1;isolation:auto;mix-blend-mode:normal;color-interpolation:sRGB;color-interpolation-filters:linearRGB;solid-color:#000000;solid-opacity:1;fill:#b48966;fill-opacity:1;fill-rule:evenodd;stroke:none;stroke-width:1px;stroke-linecap:round;stroke-linejoin:round;stroke-miterlimit:4;stroke-dasharray:none;stroke-dashoffset:0;stroke-opacity:1;color-rendering:auto;image-rendering:auto;shape-rendering:auto;text-rendering:auto;enable-background:accumulate" />
        <path
           inkscape:connector-curvature="0"
           id="path5499"
           d="m 28.451172,1040.8945 a 0.50005,0.50005 0 1 0 0,1 l 2.300781,0 a 0.50005,0.50005 0 1 0 0,-1 l -2.300781,0 z"
           style="color:#000000;font-style:normal;font-variant:normal;font-weight:normal;font-stretch:normal;font-size:medium;line-height:normal;font-family:sans-serif;text-indent:0;text-align:start;text-decoration:none;text-decoration-line:none;text-decoration-style:solid;text-decoration-color:#000000;letter-spacing:normal;word-spacing:normal;text-transform:none;direction:ltr;block-progression:tb;writing-mode:lr-tb;baseline-shift:baseline;text-anchor:start;white-space:normal;clip-rule:nonzero;display:inline;overflow:visible;visibility:visible;opacity:1;isolation:auto;mix-blend-mode:normal;color-interpolation:sRGB;color-interpolation-filters:linearRGB;solid-color:#000000;solid-opacity:1;fill:#b48966;fill-opacity:1;fill-rule:evenodd;stroke:none;stroke-width:1px;stroke-linecap:round;stroke-linejoin:round;stroke-miterlimit:4;stroke-dasharray:none;stroke-dashoffset:0;stroke-opacity:1;color-rendering:auto;image-rendering:auto;shape-rendering:auto;text-rendering:auto;enable-background:accumulate" />
        <path
           inkscape:connector-curvature="0"
           id="path5501"
           d="m 30.75,1038.8945 a 0.50005,0.50005 0 0 0 -0.308594,0.1153 l -4.988281,3.9922 a 0.50022456,0.50022456 0 1 0 0.625,0.7812 l 4.988281,-3.9941 A 0.50005,0.50005 0 0 0 30.75,1038.8945 Z"
           style="color:#000000;font-style:normal;font-variant:normal;font-weight:normal;font-stretch:normal;font-size:medium;line-height:normal;font-family:sans-serif;text-indent:0;text-align:start;text-decoration:none;text-decoration-line:none;text-decoration-style:solid;text-decoration-color:#000000;letter-spacing:normal;word-spacing:normal;text-transform:none;direction:ltr;block-progression:tb;writing-mode:lr-tb;baseline-shift:baseline;text-anchor:start;white-space:normal;clip-rule:nonzero;display:inline;overflow:visible;visibility:visible;opacity:1;isolation:auto;mix-blend-mode:normal;color-interpolation:sRGB;color-interpolation-filters:linearRGB;solid-color:#000000;solid-opacity:1;fill:#b48966;fill-opacity:1;fill-rule:evenodd;stroke:none;stroke-width:1px;stroke-linecap:round;stroke-linejoin:round;stroke-miterlimit:4;stroke-dasharray:none;stroke-dashoffset:0;stroke-opacity:1;color-rendering:auto;image-rendering:auto;shape-rendering:auto;text-rendering:auto;enable-background:accumulate" />
        <path
           inkscape:connector-curvature="0"
           id="path5503"
           d="m 28.751953,1038.3887 a 0.50005,0.50005 0 0 0 -0.492187,0.5058 l 0,2 a 0.50005,0.50005 0 1 0 1,0 l 0,-2 a 0.50005,0.50005 0 0 0 -0.507813,-0.5058 z"
           style="color:#000000;font-style:normal;font-variant:normal;font-weight:normal;font-stretch:normal;font-size:medium;line-height:normal;font-family:sans-serif;text-indent:0;text-align:start;text-decoration:none;text-decoration-line:none;text-decoration-style:solid;text-decoration-color:#000000;letter-spacing:normal;word-spacing:normal;text-transform:none;direction:ltr;block-progression:tb;writing-mode:lr-tb;baseline-shift:baseline;text-anchor:start;white-space:normal;clip-rule:nonzero;display:inline;overflow:visible;visibility:visible;opacity:1;isolation:auto;mix-blend-mode:normal;color-interpolation:sRGB;color-interpolation-filters:linearRGB;solid-color:#000000;solid-opacity:1;fill:#b48966;fill-opacity:1;fill-rule:evenodd;stroke:none;stroke-width:1px;stroke-linecap:round;stroke-linejoin:round;stroke-miterlimit:4;stroke-dasharray:none;stroke-dashoffset:0;stroke-opacity:1;color-rendering:auto;image-rendering:auto;shape-rendering:auto;text-rendering:auto;enable-background:accumulate" />
        <path
           id="circle5442"
           d="m 27.259007,1046.3955 a 7,7 0 0 1 -7,7 7,7 0 0 1 -7,-7 7,7 0 0 1 7,-7 7,7 0 0 1 7,7 z"
           style="fill:#d8d7dc;fill-opacity:1;stroke:none;stroke-width:1;stroke-linecap:round;stroke-linejoin:round;stroke-opacity:1" />
        <path
           style="fill:#c7c6cd;fill-opacity:1;stroke:none;stroke-width:1;stroke-linecap:round;stroke-linejoin:round;stroke-opacity:1"
           d="m 20.259007,1039.3956 a 7,7 0 0 0 -3.220703,0.7871 c 0.873591,0.7444 1.990223,1.2129 3.220703,1.2129 1.228513,0 2.343782,-0.4667 3.216797,-1.209 a 7,7 0 0 0 -3.216797,-0.791 z"
           id="path5444"
           inkscape:connector-curvature="0" />
        <path
           inkscape:connector-curvature="0"
           id="path5446"
           d="m 17.419922,1038.4629 a 1.0001,1.0001 0 0 0 -0.697266,1.7187 c 0.937405,0.9375 2.211407,1.4629 3.53711,1.4629 1.325703,0 2.597751,-0.5254 3.535156,-1.4629 a 1.0001,1.0001 0 1 0 -1.414063,-1.414 c -0.562877,0.5629 -1.325057,0.8769 -2.121093,0.8769 -0.796037,0 -1.56017,-0.314 -2.123047,-0.8769 a 1.0001,1.0001 0 0 0 -0.716797,-0.3047 z"
           style="color:#000000;font-style:normal;font-variant:normal;font-weight:normal;font-stretch:normal;font-size:medium;line-height:normal;font-family:sans-serif;text-indent:0;text-align:start;text-decoration:none;text-decoration-line:none;text-decoration-style:solid;text-decoration-color:#000000;letter-spacing:normal;word-spacing:normal;text-transform:none;direction:ltr;block-progression:tb;writing-mode:lr-tb;baseline-shift:baseline;text-anchor:start;white-space:normal;clip-rule:nonzero;display:inline;overflow:visible;visibility:visible;opacity:1;isolation:auto;mix-blend-mode:normal;color-interpolation:sRGB;color-interpolation-filters:linearRGB;solid-color:#000000;solid-opacity:1;fill:#fd0437;fill-opacity:1;fill-rule:nonzero;stroke:none;stroke-width:2;stroke-linecap:round;stroke-linejoin:round;stroke-miterlimit:4;stroke-dasharray:none;stroke-dashoffset:0;stroke-opacity:1;color-rendering:auto;image-rendering:auto;shape-rendering:auto;text-rendering:auto;enable-background:accumulate" />
        <path
           inkscape:connector-curvature="0"
           style="color:#000000;font-style:normal;font-variant:normal;font-weight:normal;font-stretch:normal;font-size:medium;line-height:normal;font-family:sans-serif;text-indent:0;text-align:start;text-decoration:none;text-decoration-line:none;text-decoration-style:solid;text-decoration-color:#000000;letter-spacing:normal;word-spacing:normal;text-transform:none;direction:ltr;block-progression:tb;writing-mode:lr-tb;baseline-shift:baseline;text-anchor:start;white-space:normal;clip-rule:nonzero;display:inline;overflow:visible;visibility:visible;opacity:1;isolation:auto;mix-blend-mode:normal;color-interpolation:sRGB;color-interpolation-filters:linearRGB;solid-color:#000000;solid-opacity:1;fill:#d60724;fill-opacity:1;fill-rule:nonzero;stroke:none;stroke-width:2;stroke-linecap:round;stroke-linejoin:round;stroke-miterlimit:4;stroke-dasharray:none;stroke-dashoffset:0;stroke-opacity:1;color-rendering:auto;image-rendering:auto;shape-rendering:auto;text-rendering:auto;enable-background:accumulate"
           d="m 23.079319,1038.4601 a 1.0001,1.0001 0 0 0 -0.699218,0.3085 c -0.364271,0.3643 -0.816366,0.6099 -1.302735,0.7481 -0.314005,0.6647 -0.50318,1.3774 -0.548828,2.1016 0.536909,-0.029 1.063025,-0.1326 1.556641,-0.3262 0.140762,-0.8498 0.523081,-1.6637 1.169922,-2.3106 a 0.750075,0.750075 0 0 0 0.0059,-0.012 c 0.103733,-0.1067 0.179525,-0.098 0.277344,-0.057 0.09782,0.041 0.156736,0.09 0.152344,0.2383 -0.0019,0.065 -0.02937,0.1263 -0.07617,0.1718 a 0.750075,0.750075 0 0 0 -0.0078,0.01 c -0.479306,0.4793 -0.797866,1.0618 -0.96289,1.6797 0.41503,-0.2263 0.810112,-0.4897 1.15039,-0.8301 a 1.0001,1.0001 0 0 0 -0.714844,-1.7226 z"
           id="path5448" />
        <path
           id="circle5450"
           d="m 20.759007,1042.8955 a 0.5,0.5 0 0 1 -0.5,0.5 0.5,0.5 0 0 1 -0.5,-0.5 0.5,0.5 0 0 1 0.5,-0.5 0.5,0.5 0 0 1 0.5,0.5 z"
           style="fill:#2a292e;fill-opacity:1;stroke:none;stroke-width:1;stroke-linecap:round;stroke-linejoin:round;stroke-opacity:1" />
        <path
           id="circle5452"
           d="m 20.759007,1044.8955 a 0.5,0.5 0 0 1 -0.5,0.5 0.5,0.5 0 0 1 -0.5,-0.5 0.5,0.5 0 0 1 0.5,-0.5 0.5,0.5 0 0 1 0.5,0.5 z"
           style="fill:#2a292e;fill-opacity:1;stroke:none;stroke-width:1;stroke-linecap:round;stroke-linejoin:round;stroke-opacity:1" />
        <path
           id="circle5454"
           d="m 20.759007,1046.8955 a 0.5,0.5 0 0 1 -0.5,0.5 0.5,0.5 0 0 1 -0.5,-0.5 0.5,0.5 0 0 1 0.5,-0.5 0.5,0.5 0 0 1 0.5,0.5 z"
           style="fill:#2a292e;fill-opacity:1;stroke:none;stroke-width:1;stroke-linecap:round;stroke-linejoin:round;stroke-opacity:1" />
        <path
           inkscape:connector-curvature="0"
           id="path5456"
           d="m 24.439453,1039.1719 a 1.0001,1.0001 0 0 1 -0.302734,0.6875 c -1.067706,1.0677 -1.179523,2.7409 -0.263672,3.9414 a 1.0001,1.0001 0 1 1 -1.589844,1.2129 c -1.514041,-1.9846 -1.325627,-4.8033 0.439453,-6.5684 a 1.0001,1.0001 0 0 1 1.716797,0.7266 z"
           style="color:#000000;font-style:normal;font-variant:normal;font-weight:normal;font-stretch:normal;font-size:medium;line-height:normal;font-family:sans-serif;text-indent:0;text-align:start;text-decoration:none;text-decoration-line:none;text-decoration-style:solid;text-decoration-color:#000000;letter-spacing:normal;word-spacing:normal;text-transform:none;direction:ltr;block-progression:tb;writing-mode:lr-tb;baseline-shift:baseline;text-anchor:start;white-space:normal;clip-rule:nonzero;display:inline;overflow:visible;visibility:visible;opacity:1;isolation:auto;mix-blend-mode:normal;color-interpolation:sRGB;color-interpolation-filters:linearRGB;solid-color:#000000;solid-opacity:1;fill:#fd0437;fill-opacity:1;fill-rule:nonzero;stroke:none;stroke-width:2;stroke-linecap:round;stroke-linejoin:round;stroke-miterlimit:4;stroke-dasharray:none;stroke-dashoffset:0;stroke-opacity:1;color-rendering:auto;image-rendering:auto;shape-rendering:auto;text-rendering:auto;enable-background:accumulate" />
        <path
           inkscape:connector-curvature="0"
           id="path5458"
           d="m 25.679839,1045.738 a 0.32503249,0.32503249 0 0 1 -0.39836,0.3104 c -1.121874,-0.2384 -2.102241,-0.9136 -2.726917,-1.8755 a 0.32512024,0.32512024 0 0 1 0.544652,-0.3552 c 0.530923,0.8176 1.365535,1.3911 2.319031,1.5937 a 0.32503249,0.32503249 0 0 1 0.261594,0.3266 z"
           style="color:#000000;font-style:normal;font-variant:normal;font-weight:normal;font-stretch:normal;font-size:medium;line-height:normal;font-family:sans-serif;text-indent:0;text-align:start;text-decoration:none;text-decoration-line:none;text-decoration-style:solid;text-decoration-color:#000000;letter-spacing:normal;word-spacing:normal;text-transform:none;direction:ltr;block-progression:tb;writing-mode:lr-tb;baseline-shift:baseline;text-anchor:start;white-space:normal;clip-rule:nonzero;display:inline;overflow:visible;visibility:visible;opacity:1;isolation:auto;mix-blend-mode:normal;color-interpolation:sRGB;color-interpolation-filters:linearRGB;solid-color:#000000;solid-opacity:1;fill:#d8d7dc;fill-opacity:1;fill-rule:nonzero;stroke:none;stroke-width:0.64999998;stroke-linecap:round;stroke-linejoin:round;stroke-miterlimit:4;stroke-dasharray:none;stroke-dashoffset:0;stroke-opacity:1;color-rendering:auto;image-rendering:auto;shape-rendering:auto;text-rendering:auto;enable-background:accumulate" />
        <path
           inkscape:connector-curvature="0"
           id="path5460"
           d="m 23.865234,1045.668 a 0.35003499,0.35003499 0 0 1 -0.542968,0.2617 c -0.582506,-0.3748 -1.067719,-0.8845 -1.414063,-1.4844 a 0.35042176,0.35042176 0 0 1 0.607422,-0.3496 c 0.29062,0.5033 0.69676,0.9297 1.185547,1.2441 a 0.35003499,0.35003499 0 0 1 0.164062,0.3282 z"
           style="color:#000000;font-style:normal;font-variant:normal;font-weight:normal;font-stretch:normal;font-size:medium;line-height:normal;font-family:sans-serif;text-indent:0;text-align:start;text-decoration:none;text-decoration-line:none;text-decoration-style:solid;text-decoration-color:#000000;letter-spacing:normal;word-spacing:normal;text-transform:none;direction:ltr;block-progression:tb;writing-mode:lr-tb;baseline-shift:baseline;text-anchor:start;white-space:normal;clip-rule:nonzero;display:inline;overflow:visible;visibility:visible;opacity:1;isolation:auto;mix-blend-mode:normal;color-interpolation:sRGB;color-interpolation-filters:linearRGB;solid-color:#000000;solid-opacity:1;fill:#fd0437;fill-opacity:1;fill-rule:nonzero;stroke:none;stroke-width:0.69999999;stroke-linecap:round;stroke-linejoin:round;stroke-miterlimit:4;stroke-dasharray:none;stroke-dashoffset:0;stroke-opacity:1;color-rendering:auto;image-rendering:auto;shape-rendering:auto;text-rendering:auto;enable-background:accumulate" />
        <path
           inkscape:connector-curvature="0"
           id="path5462"
           d="m 24.659535,1044.6169 a 0.32503249,0.32503249 0 0 1 -0.518323,0.279 c -0.365464,-0.2656 -0.687584,-0.5861 -0.953591,-0.9514 a 0.32509516,0.32509516 0 0 1 0.524869,-0.3837 c 0.226021,0.3102 0.500284,0.5837 0.810825,0.8094 a 0.32503249,0.32503249 0 0 1 0.13622,0.2467 z"
           style="color:#000000;font-style:normal;font-variant:normal;font-weight:normal;font-stretch:normal;font-size:medium;line-height:normal;font-family:sans-serif;text-indent:0;text-align:start;text-decoration:none;text-decoration-line:none;text-decoration-style:solid;text-decoration-color:#000000;letter-spacing:normal;word-spacing:normal;text-transform:none;direction:ltr;block-progression:tb;writing-mode:lr-tb;baseline-shift:baseline;text-anchor:start;white-space:normal;clip-rule:nonzero;display:inline;overflow:visible;visibility:visible;opacity:1;isolation:auto;mix-blend-mode:normal;color-interpolation:sRGB;color-interpolation-filters:linearRGB;solid-color:#000000;solid-opacity:1;fill:#fd0437;fill-opacity:1;fill-rule:nonzero;stroke:none;stroke-width:0.64999998;stroke-linecap:round;stroke-linejoin:round;stroke-miterlimit:4;stroke-dasharray:none;stroke-dashoffset:0;stroke-opacity:1;color-rendering:auto;image-rendering:auto;shape-rendering:auto;text-rendering:auto;enable-background:accumulate" />
        <path
           id="circle5464"
           d="m 24.259006,1036.3955 a 3.9999998,3.9999998 0 0 1 -3.999999,4 3.9999998,3.9999998 0 0 1 -4,-4 3.9999998,3.9999998 0 0 1 4,-4 3.9999998,3.9999998 0 0 1 3.999999,4 z"
           style="fill:#d8d7dc;fill-opacity:1;stroke:none;stroke-width:1;stroke-linecap:round;stroke-linejoin:round;stroke-opacity:1" />
        <path
           id="rect5466"
           d="m 15.759007,1033.3955 9,0 c 0.277,0 0.5,0.223 0.5,0.5 0,0.277 -0.223,0.5 -0.5,0.5 l -9,0 c -0.277,0 -0.5,-0.223 -0.5,-0.5 0,-0.277 0.223,-0.5 0.5,-0.5 z"
           style="fill:#3c3b41;fill-opacity:1;stroke:none;stroke-width:1;stroke-linecap:round;stroke-linejoin:round;stroke-opacity:1" />
        <path
           id="rect5468"
           d="m 17.34234,1026.3955 5.833333,0 c 0.323167,0 0.583334,0.2549 0.583334,0.5714 l 0,6.8571 c 0,0.3166 -0.260167,0.5715 -0.583334,0.5715 l -5.833333,0 c -0.323167,0 -0.583333,-0.2549 -0.583333,-0.5715 l 0,-6.8571 c 0,-0.3165 0.260166,-0.5714 0.583333,-0.5714 z"
           style="fill:#3c3b41;fill-opacity:1;stroke:none;stroke-width:1;stroke-linecap:round;stroke-linejoin:round;stroke-opacity:1" />
        <path
           id="circle5470"
           d="m 19.259007,1035.8955 a 0.5,0.5 0 0 1 -0.5,0.5 0.5,0.5 0 0 1 -0.5,-0.5 0.5,0.5 0 0 1 0.5,-0.5 0.5,0.5 0 0 1 0.5,0.5 z"
           style="fill:#3c3b41;fill-opacity:1;stroke:none;stroke-width:1;stroke-linecap:round;stroke-linejoin:round;stroke-opacity:1" />
        <path
           id="circle5472"
           d="m 22.259007,1035.8955 a 0.5,0.5 0 0 1 -0.5,0.5 0.5,0.5 0 0 1 -0.5,-0.5 0.5,0.5 0 0 1 0.5,-0.5 0.5,0.5 0 0 1 0.5,0.5 z"
           style="fill:#3c3b41;fill-opacity:1;stroke:none;stroke-width:1;stroke-linecap:round;stroke-linejoin:round;stroke-opacity:1" />
        <path
           id="rect5474"
           d="m 16.759024,1032.3955 6.999965,0 c 10e-6,0 1.8e-5,0 1.8e-5,0 l 0,1 c 0,0 -8e-6,0 -1.8e-5,0 l -6.999965,0 c -10e-6,0 -1.7e-5,0 -1.7e-5,0 l 0,-1 c 0,0 7e-6,0 1.7e-5,0 z"
           style="fill:#2a292e;fill-opacity:1;stroke:none;stroke-width:1;stroke-linecap:round;stroke-linejoin:round;stroke-opacity:1" />
        <path
           style="fill:#fda816;fill-opacity:1;stroke:none;stroke-width:1;stroke-linecap:round;stroke-linejoin:round;stroke-opacity:1"
           d="m 20.925674,1038.0623 c 0,0.3682 -0.666666,1.3333 -0.666666,1.3333 0,0 -0.666667,-0.9651 -0.666667,-1.3333 0,-0.3682 0.298477,-0.6667 0.666667,-0.6667 0.36819,0 0.666666,0.2985 0.666666,0.6667 z"
           id="path5476"
           inkscape:connector-curvature="0"
           sodipodi:nodetypes="scsss" />
      </g>
    </g>
  </g>
</svg>
