<?xml version="1.0" encoding="UTF-8" standalone="no"?>
<!-- Created with Inkscape (http://www.inkscape.org/) -->

<svg
   xmlns:dc="http://purl.org/dc/elements/1.1/"
   xmlns:cc="http://creativecommons.org/ns#"
   xmlns:rdf="http://www.w3.org/1999/02/22-rdf-syntax-ns#"
   xmlns:svg="http://www.w3.org/2000/svg"
   xmlns="http://www.w3.org/2000/svg"
   xmlns:sodipodi="http://sodipodi.sourceforge.net/DTD/sodipodi-0.dtd"
   xmlns:inkscape="http://www.inkscape.org/namespaces/inkscape"
   width="32"
   height="32"
   viewBox="0 0 32 32.000001"
   id="svg4244"
   version="1.1"
   inkscape:version="0.91 r13725"
   sodipodi:docname="31.svg">
  <defs
     id="defs4246" />
  <sodipodi:namedview
     id="base"
     pagecolor="#ffffff"
     bordercolor="#666666"
     borderopacity="1.0"
     inkscape:pageopacity="0.0"
     inkscape:pageshadow="2"
     inkscape:zoom="5.6568543"
     inkscape:cx="-30.314966"
     inkscape:cy="23.951427"
     inkscape:document-units="px"
     inkscape:current-layer="g4783"
     showgrid="true"
     units="px"
     inkscape:window-width="1366"
     inkscape:window-height="705"
     inkscape:window-x="-8"
     inkscape:window-y="-8"
     inkscape:window-maximized="1"
     inkscape:snap-bbox="true"
     inkscape:bbox-paths="true"
     inkscape:bbox-nodes="true"
     inkscape:snap-bbox-edge-midpoints="true"
     inkscape:snap-bbox-midpoints="true">
    <inkscape:grid
       type="xygrid"
       id="grid4252" />
  </sodipodi:namedview>
  <metadata
     id="metadata4249">
    <rdf:RDF>
      <cc:Work
         rdf:about="">
        <dc:format>image/svg+xml</dc:format>
        <dc:type
           rdf:resource="http://purl.org/dc/dcmitype/StillImage" />
        <dc:title></dc:title>
      </cc:Work>
    </rdf:RDF>
  </metadata>
  <g
     inkscape:label="Layer 1"
     inkscape:groupmode="layer"
     id="layer1"
     transform="translate(0,-1020.3622)">
    <g
       id="g4783"
       transform="translate(-4.2590071,-3.0333347)">
      <g
         id="g9090">
        <path
           inkscape:connector-curvature="0"
           id="path5747"
           d="m 14.259766,1034.1914 c -0.878894,0 -1.603485,0.7227 -1.603516,1.6016 -4.8e-5,0.8789 0.724567,1.6015 1.603516,1.6015 0.878948,0 1.60161,-0.7226 1.601562,-1.6015 -3.1e-5,-0.8789 -0.722669,-1.6016 -1.601562,-1.6016 z m 0,1 c 0.338465,0 0.60155,0.2631 0.601562,0.6016 1.9e-5,0.3385 -0.263074,0.6015 -0.601562,0.6015 -0.338489,0 -0.603535,-0.263 -0.603516,-0.6015 1.2e-5,-0.3385 0.26505,-0.6016 0.603516,-0.6016 z"
           style="color:#000000;font-style:normal;font-variant:normal;font-weight:normal;font-stretch:normal;font-size:medium;line-height:normal;font-family:sans-serif;text-indent:0;text-align:start;text-decoration:none;text-decoration-line:none;text-decoration-style:solid;text-decoration-color:#000000;letter-spacing:normal;word-spacing:normal;text-transform:none;direction:ltr;block-progression:tb;writing-mode:lr-tb;baseline-shift:baseline;text-anchor:start;white-space:normal;clip-rule:nonzero;display:inline;overflow:visible;visibility:visible;opacity:1;isolation:auto;mix-blend-mode:normal;color-interpolation:sRGB;color-interpolation-filters:linearRGB;solid-color:#000000;solid-opacity:1;fill:#ff9a00;fill-opacity:1;fill-rule:nonzero;stroke:none;stroke-width:1;stroke-linecap:round;stroke-linejoin:round;stroke-miterlimit:4;stroke-dasharray:none;stroke-dashoffset:0;stroke-opacity:1;color-rendering:auto;image-rendering:auto;shape-rendering:auto;text-rendering:auto;enable-background:accumulate" />
        <path
           id="circle5715"
           d="m -488.4,914.70093 a 5.9174161,5.9174161 0 0 1 -5.91741,5.91741 5.9174161,5.9174161 0 0 1 -5.91742,-5.91741 5.9174161,5.9174161 0 0 1 5.91742,-5.91742 5.9174161,5.9174161 0 0 1 5.91741,5.91742 z"
           style="fill:#ff9a00;fill-opacity:1;stroke:none;stroke-width:1;stroke-linecap:round;stroke-linejoin:round;stroke-opacity:1"
           transform="matrix(0.86602541,-0.5,0.5,0.86602541,0,0)" />
        <path
           id="rect5717"
           d="m -500.60468,913.96124 12.57451,0 c 0.20489,0 0.36984,0.16495 0.36984,0.36984 l 0,0.73967 c 0,0.20489 -0.16495,0.36983 -0.36984,0.36983 l -12.57451,0 c -0.20489,0 -0.36984,-0.16494 -0.36984,-0.36983 l 0,-0.73967 c 0,-0.20489 0.16495,-0.36984 0.36984,-0.36984 z"
           style="fill:#e67401;fill-opacity:1;stroke:none;stroke-width:1;stroke-linecap:round;stroke-linejoin:round;stroke-opacity:1"
           transform="matrix(0.86602541,-0.5,0.5,0.86602541,0,0)" />
        <path
           style="color:#000000;font-style:normal;font-variant:normal;font-weight:normal;font-stretch:normal;font-size:medium;line-height:normal;font-family:sans-serif;text-indent:0;text-align:start;text-decoration:none;text-decoration-line:none;text-decoration-style:solid;text-decoration-color:#000000;letter-spacing:normal;word-spacing:normal;text-transform:none;direction:ltr;block-progression:tb;writing-mode:lr-tb;baseline-shift:baseline;text-anchor:start;white-space:normal;clip-rule:nonzero;display:inline;overflow:visible;visibility:visible;opacity:1;isolation:auto;mix-blend-mode:normal;color-interpolation:sRGB;color-interpolation-filters:linearRGB;solid-color:#000000;solid-opacity:1;fill:#3c3b41;fill-opacity:1;fill-rule:nonzero;stroke:none;stroke-width:1;stroke-linecap:round;stroke-linejoin:round;stroke-miterlimit:4;stroke-dasharray:none;stroke-dashoffset:0;stroke-opacity:1;color-rendering:auto;image-rendering:auto;shape-rendering:auto;text-rendering:auto;enable-background:accumulate"
           d="m 25.621739,1043.9753 a 5.9174159,5.9174159 0 0 0 6.595983,0.4623 5.9174159,5.9174159 0 0 0 2.89885,-5.9442 l -0.344061,0.1987 c 0.239798,2.125 -0.766554,4.286 -2.739708,5.4252 -1.973154,1.1392 -4.347802,0.9302 -6.068254,-0.34 l -0.34281,0.198 z"
           id="path5719"
           inkscape:connector-curvature="0" />
        <path
           id="circle5721"
           d="m -493.57774,916.91992 a 0.73967701,0.73967701 0 0 1 -0.73967,0.73968 0.73967701,0.73967701 0 0 1 -0.73968,-0.73968 0.73967701,0.73967701 0 0 1 0.73968,-0.73968 0.73967701,0.73967701 0 0 1 0.73967,0.73968 z"
           style="fill:#3c3b41;fill-opacity:1;stroke:none;stroke-width:1;stroke-linecap:round;stroke-linejoin:round;stroke-opacity:1"
           transform="matrix(0.86602541,-0.5,0.5,0.86602541,0,0)" />
        <path
           style="fill:#3c3b41;fill-opacity:1;stroke:none;stroke-width:1;stroke-linecap:round;stroke-linejoin:round;stroke-opacity:1"
           d="m 25.514638,1043.183 a 0.73967698,0.73967698 0 0 0 -0.333066,0.4141 5.9174159,5.9174159 0 0 0 1.123846,0.8342 0.73967698,0.73967698 0 0 0 0.219638,-0.9776 0.73967698,0.73967698 0 0 0 -1.010418,-0.2707 z"
           id="path5723"
           inkscape:connector-curvature="0" />
        <path
           style="fill:#3c3b41;fill-opacity:1;stroke:none;stroke-width:1;stroke-linecap:round;stroke-linejoin:round;stroke-opacity:1"
           d="m 34.482745,1038.0052 a 0.73967698,0.73967698 0 0 0 -0.270741,1.0105 0.73967698,0.73967698 0 0 0 0.960179,0.2964 5.9174159,5.9174159 0 0 0 -0.164951,-1.3895 0.73967698,0.73967698 0 0 0 -0.524487,0.083 z"
           id="path5725"
           inkscape:connector-curvature="0" />
        <path
           id="rect5727"
           d="m -494.68726,916.91992 0.73968,0 0,3.69839 -0.73968,0 z"
           style="fill:#3c3b41;fill-opacity:1;stroke:none;stroke-width:1;stroke-linecap:round;stroke-linejoin:round;stroke-opacity:1"
           transform="matrix(0.86602541,-0.5,0.5,0.86602541,0,0)" />
        <path
           id="path5684"
           d="m 22.259005,1044.3955 a 8,8 0 0 1 -8,8 8,8 0 0 1 -8.0000004,-8 8,8 0 0 1 8.0000004,-8 8,8 0 0 1 8,8 z"
           style="fill:#ff9a00;fill-opacity:1;stroke:none;stroke-width:1;stroke-linecap:round;stroke-linejoin:round;stroke-opacity:1" />
        <path
           id="rect5686"
           d="m 5.7590051,1043.3955 16.9999999,0 c 0.277,0 0.5,0.223 0.5,0.5 l 0,1 c 0,0.277 -0.223,0.5 -0.5,0.5 l -16.9999999,0 c -0.277,0 -0.5,-0.223 -0.5,-0.5 l 0,-1 c 0,-0.277 0.223,-0.5 0.5,-0.5 z"
           style="fill:#e67401;fill-opacity:1;stroke:none;stroke-width:1;stroke-linecap:round;stroke-linejoin:round;stroke-opacity:1" />
        <path
           id="circle5690"
           d="m 6.8488487,1047.3955 a 8,8 0 0 0 7.4101563,5 8,8 0 0 0 7.412109,-5 l -0.537109,0 c -1.155715,2.6501 -3.794734,4.5 -6.875,4.5 -3.080266,0 -5.7192851,-1.8499 -6.8750001,-4.5 l -0.5351562,0 z"
           style="color:#000000;font-style:normal;font-variant:normal;font-weight:normal;font-stretch:normal;font-size:medium;line-height:normal;font-family:sans-serif;text-indent:0;text-align:start;text-decoration:none;text-decoration-line:none;text-decoration-style:solid;text-decoration-color:#000000;letter-spacing:normal;word-spacing:normal;text-transform:none;direction:ltr;block-progression:tb;writing-mode:lr-tb;baseline-shift:baseline;text-anchor:start;white-space:normal;clip-rule:nonzero;display:inline;overflow:visible;visibility:visible;opacity:1;isolation:auto;mix-blend-mode:normal;color-interpolation:sRGB;color-interpolation-filters:linearRGB;solid-color:#000000;solid-opacity:1;fill:#3c3b41;fill-opacity:1;fill-rule:nonzero;stroke:none;stroke-width:1;stroke-linecap:round;stroke-linejoin:round;stroke-miterlimit:4;stroke-dasharray:none;stroke-dashoffset:0;stroke-opacity:1;color-rendering:auto;image-rendering:auto;shape-rendering:auto;text-rendering:auto;enable-background:accumulate"
           inkscape:connector-curvature="0" />
        <path
           id="path5698"
           d="m 15.259005,1047.3955 a 1,1 0 0 1 -1,1 1,1 0 0 1 -1,-1 1,1 0 0 1 1,-1 1,1 0 0 1 1,1 z"
           style="fill:#3c3b41;fill-opacity:1;stroke:none;stroke-width:1;stroke-linecap:round;stroke-linejoin:round;stroke-opacity:1" />
        <path
           id="circle5700"
           d="m 7.2590049,1046.3955 a 1,1 0 0 0 -0.6699219,0.2598 8,8 0 0 0 0.7519531,1.7363 1,1 0 0 0 0.9179688,-0.9961 1,1 0 0 0 -1,-1 z"
           style="fill:#3c3b41;fill-opacity:1;stroke:none;stroke-width:1;stroke-linecap:round;stroke-linejoin:round;stroke-opacity:1"
           inkscape:connector-curvature="0" />
        <path
           id="circle5702"
           d="m 21.259005,1046.3955 a 1,1 0 0 0 -1,1 1,1 0 0 0 0.923828,0.9961 8,8 0 0 0 0.746094,-1.7383 1,1 0 0 0 -0.669922,-0.2578 z"
           style="fill:#3c3b41;fill-opacity:1;stroke:none;stroke-width:1;stroke-linecap:round;stroke-linejoin:round;stroke-opacity:1"
           inkscape:connector-curvature="0" />
        <path
           id="rect5704"
           d="m 13.759005,1047.3955 1,0 0,5 -1,0 z"
           style="fill:#3c3b41;fill-opacity:1;stroke:none;stroke-width:1;stroke-linecap:round;stroke-linejoin:round;stroke-opacity:1" />
        <path
           inkscape:connector-curvature="0"
           id="circle5749"
           d="m 25.861328,1032.0781 c -0.878893,0 -1.601531,0.7227 -1.601562,1.6016 -4.9e-5,0.8789 0.722614,1.6015 1.601562,1.6015 0.878948,0 1.601611,-0.7226 1.601563,-1.6015 -3.2e-5,-0.8789 -0.72267,-1.6016 -1.601563,-1.6016 z m 0,1 c 0.338466,0 0.601551,0.2631 0.601563,0.6016 1.8e-5,0.3385 -0.263074,0.6015 -0.601563,0.6015 -0.338488,0 -0.601581,-0.263 -0.601562,-0.6015 1.2e-5,-0.3385 0.263097,-0.6016 0.601562,-0.6016 z"
           style="color:#000000;font-style:normal;font-variant:normal;font-weight:normal;font-stretch:normal;font-size:medium;line-height:normal;font-family:sans-serif;text-indent:0;text-align:start;text-decoration:none;text-decoration-line:none;text-decoration-style:solid;text-decoration-color:#000000;letter-spacing:normal;word-spacing:normal;text-transform:none;direction:ltr;block-progression:tb;writing-mode:lr-tb;baseline-shift:baseline;text-anchor:start;white-space:normal;clip-rule:nonzero;display:inline;overflow:visible;visibility:visible;opacity:1;isolation:auto;mix-blend-mode:normal;color-interpolation:sRGB;color-interpolation-filters:linearRGB;solid-color:#000000;solid-opacity:1;fill:#ff9a00;fill-opacity:1;fill-rule:nonzero;stroke:none;stroke-width:1;stroke-linecap:round;stroke-linejoin:round;stroke-miterlimit:4;stroke-dasharray:none;stroke-dashoffset:0;stroke-opacity:1;color-rendering:auto;image-rendering:auto;shape-rendering:auto;text-rendering:auto;enable-background:accumulate" />
        <path
           inkscape:connector-curvature="0"
           id="path5767"
           d="m 32.755859,1026.1445 a 0.50005,0.50005 0 0 0 -0.4375,0.2617 c -2.465892,4.4131 -6.621866,7.5327 -11.435547,8.5938 -4.813673,1.0611 -9.83445,-0.034 -13.8242182,-3.0195 a 0.50016295,0.50016295 0 0 0 -0.5996094,0.8007 c 4.2182536,3.1568 9.5406646,4.3191 14.6386716,3.1954 5.098016,-1.1238 9.492287,-4.4264 12.09375,-9.0821 a 0.50005,0.50005 0 0 0 -0.435547,-0.75 z"
           style="color:#000000;font-style:normal;font-variant:normal;font-weight:normal;font-stretch:normal;font-size:medium;line-height:normal;font-family:sans-serif;text-indent:0;text-align:start;text-decoration:none;text-decoration-line:none;text-decoration-style:solid;text-decoration-color:#000000;letter-spacing:normal;word-spacing:normal;text-transform:none;direction:ltr;block-progression:tb;writing-mode:lr-tb;baseline-shift:baseline;text-anchor:start;white-space:normal;clip-rule:nonzero;display:inline;overflow:visible;visibility:visible;opacity:1;isolation:auto;mix-blend-mode:normal;color-interpolation:sRGB;color-interpolation-filters:linearRGB;solid-color:#000000;solid-opacity:1;fill:#57565c;fill-opacity:1;fill-rule:nonzero;stroke:none;stroke-width:1;stroke-linecap:round;stroke-linejoin:round;stroke-miterlimit:4;stroke-dasharray:none;stroke-dashoffset:0;stroke-opacity:1;color-rendering:auto;image-rendering:auto;shape-rendering:auto;text-rendering:auto;enable-background:accumulate" />
        <path
           inkscape:connector-curvature="0"
           id="circle5769"
           d="m 14.703125,1034.2539 c -0.600617,-0.1732 -1.250418,0.02 -1.658203,0.4941 -0.407793,0.4738 -0.502769,1.1448 -0.242188,1.7129 0.260574,0.5682 0.831946,0.9336 1.457032,0.9336 a 0.50005,0.50005 0 1 0 0,-1 c -0.236614,0 -0.450193,-0.1345 -0.548828,-0.3496 -0.09864,-0.215 -0.06257,-0.4652 0.0918,-0.6445 0.154359,-0.1793 0.395696,-0.2511 0.623047,-0.1856 a 0.50006212,0.50006212 0 1 0 0.277344,-0.9609 z"
           style="color:#000000;font-style:normal;font-variant:normal;font-weight:normal;font-stretch:normal;font-size:medium;line-height:normal;font-family:sans-serif;text-indent:0;text-align:start;text-decoration:none;text-decoration-line:none;text-decoration-style:solid;text-decoration-color:#000000;letter-spacing:normal;word-spacing:normal;text-transform:none;direction:ltr;block-progression:tb;writing-mode:lr-tb;baseline-shift:baseline;text-anchor:start;white-space:normal;clip-rule:nonzero;display:inline;overflow:visible;visibility:visible;opacity:1;isolation:auto;mix-blend-mode:normal;color-interpolation:sRGB;color-interpolation-filters:linearRGB;solid-color:#000000;solid-opacity:1;fill:#ff9a00;fill-opacity:1;fill-rule:nonzero;stroke:none;stroke-width:1;stroke-linecap:round;stroke-linejoin:round;stroke-miterlimit:4;stroke-dasharray:none;stroke-dashoffset:0;stroke-opacity:1;color-rendering:auto;image-rendering:auto;shape-rendering:auto;text-rendering:auto;enable-background:accumulate" />
        <path
           inkscape:connector-curvature="0"
           id="circle5771"
           d="m 25.072266,1032.3965 a 0.50005,0.50005 0 0 0 -0.34375,0.1504 c -0.565811,0.5658 -0.62579,1.4745 -0.138672,2.1093 0.487111,0.6348 1.379337,0.8122 2.072265,0.4122 a 0.5005087,0.5005087 0 1 0 -0.5,-0.8672 c -0.265029,0.153 -0.592988,0.089 -0.779297,-0.1543 -0.186311,-0.2428 -0.163675,-0.5766 0.05273,-0.793 a 0.50005,0.50005 0 0 0 -0.363281,-0.8574 z"
           style="color:#000000;font-style:normal;font-variant:normal;font-weight:normal;font-stretch:normal;font-size:medium;line-height:normal;font-family:sans-serif;text-indent:0;text-align:start;text-decoration:none;text-decoration-line:none;text-decoration-style:solid;text-decoration-color:#000000;letter-spacing:normal;word-spacing:normal;text-transform:none;direction:ltr;block-progression:tb;writing-mode:lr-tb;baseline-shift:baseline;text-anchor:start;white-space:normal;clip-rule:nonzero;display:inline;overflow:visible;visibility:visible;opacity:1;isolation:auto;mix-blend-mode:normal;color-interpolation:sRGB;color-interpolation-filters:linearRGB;solid-color:#000000;solid-opacity:1;fill:#ff9a00;fill-opacity:1;fill-rule:nonzero;stroke:none;stroke-width:1;stroke-linecap:round;stroke-linejoin:round;stroke-miterlimit:4;stroke-dasharray:none;stroke-dashoffset:0;stroke-opacity:1;color-rendering:auto;image-rendering:auto;shape-rendering:auto;text-rendering:auto;enable-background:accumulate" />
      </g>
    </g>
  </g>
</svg>
