<?xml version="1.0" encoding="UTF-8" standalone="no"?>
<!-- Created with Inkscape (http://www.inkscape.org/) -->

<svg
   xmlns:dc="http://purl.org/dc/elements/1.1/"
   xmlns:cc="http://creativecommons.org/ns#"
   xmlns:rdf="http://www.w3.org/1999/02/22-rdf-syntax-ns#"
   xmlns:svg="http://www.w3.org/2000/svg"
   xmlns="http://www.w3.org/2000/svg"
   xmlns:sodipodi="http://sodipodi.sourceforge.net/DTD/sodipodi-0.dtd"
   xmlns:inkscape="http://www.inkscape.org/namespaces/inkscape"
   width="32"
   height="32"
   viewBox="0 0 32 32.000001"
   id="svg4244"
   version="1.1"
   inkscape:version="0.91 r13725"
   sodipodi:docname="23.svg">
  <defs
     id="defs4246" />
  <sodipodi:namedview
     id="base"
     pagecolor="#ffffff"
     bordercolor="#666666"
     borderopacity="1.0"
     inkscape:pageopacity="0.0"
     inkscape:pageshadow="2"
     inkscape:zoom="64"
     inkscape:cx="5.126551"
     inkscape:cy="7.5279205"
     inkscape:document-units="px"
     inkscape:current-layer="g4783"
     showgrid="true"
     units="px"
     inkscape:window-width="1366"
     inkscape:window-height="705"
     inkscape:window-x="-8"
     inkscape:window-y="-8"
     inkscape:window-maximized="1"
     inkscape:snap-bbox="true"
     inkscape:bbox-paths="true"
     inkscape:bbox-nodes="true"
     inkscape:snap-bbox-edge-midpoints="true"
     inkscape:snap-bbox-midpoints="true">
    <inkscape:grid
       type="xygrid"
       id="grid4252" />
  </sodipodi:namedview>
  <metadata
     id="metadata4249">
    <rdf:RDF>
      <cc:Work
         rdf:about="">
        <dc:format>image/svg+xml</dc:format>
        <dc:type
           rdf:resource="http://purl.org/dc/dcmitype/StillImage" />
        <dc:title></dc:title>
      </cc:Work>
    </rdf:RDF>
  </metadata>
  <g
     inkscape:label="Layer 1"
     inkscape:groupmode="layer"
     id="layer1"
     transform="translate(0,-1020.3622)">
    <g
       id="g4783"
       transform="translate(-4.2590071,-3.0333347)">
      <g
         id="g9544">
        <path
           inkscape:connector-curvature="0"
           id="path5796"
           d="m 25.259766,1043.3945 0,4 1,0 0,-4 -1,0 z"
           style="color:#000000;font-style:normal;font-variant:normal;font-weight:normal;font-stretch:normal;font-size:medium;line-height:normal;font-family:sans-serif;text-indent:0;text-align:start;text-decoration:none;text-decoration-line:none;text-decoration-style:solid;text-decoration-color:#000000;letter-spacing:normal;word-spacing:normal;text-transform:none;direction:ltr;block-progression:tb;writing-mode:lr-tb;baseline-shift:baseline;text-anchor:start;white-space:normal;clip-rule:nonzero;display:inline;overflow:visible;visibility:visible;opacity:1;isolation:auto;mix-blend-mode:normal;color-interpolation:sRGB;color-interpolation-filters:linearRGB;solid-color:#000000;solid-opacity:1;fill:#000000;fill-opacity:1;fill-rule:evenodd;stroke:none;stroke-width:1px;stroke-linecap:butt;stroke-linejoin:miter;stroke-miterlimit:4;stroke-dasharray:none;stroke-dashoffset:0;stroke-opacity:1;color-rendering:auto;image-rendering:auto;shape-rendering:auto;text-rendering:auto;enable-background:accumulate" />
        <path
           inkscape:connector-curvature="0"
           id="path5794"
           d="m 13.259766,1043.3945 0,4 1,0 0,-4 -1,0 z"
           style="color:#000000;font-style:normal;font-variant:normal;font-weight:normal;font-stretch:normal;font-size:medium;line-height:normal;font-family:sans-serif;text-indent:0;text-align:start;text-decoration:none;text-decoration-line:none;text-decoration-style:solid;text-decoration-color:#000000;letter-spacing:normal;word-spacing:normal;text-transform:none;direction:ltr;block-progression:tb;writing-mode:lr-tb;baseline-shift:baseline;text-anchor:start;white-space:normal;clip-rule:nonzero;display:inline;overflow:visible;visibility:visible;opacity:1;isolation:auto;mix-blend-mode:normal;color-interpolation:sRGB;color-interpolation-filters:linearRGB;solid-color:#000000;solid-opacity:1;fill:#000000;fill-opacity:1;fill-rule:evenodd;stroke:none;stroke-width:1px;stroke-linecap:butt;stroke-linejoin:miter;stroke-miterlimit:4;stroke-dasharray:none;stroke-dashoffset:0;stroke-opacity:1;color-rendering:auto;image-rendering:auto;shape-rendering:auto;text-rendering:auto;enable-background:accumulate" />
        <path
           inkscape:connector-curvature="0"
           id="path5792"
           d="m 19.259766,1043.3945 0,4 1,0 0,-4 -1,0 z"
           style="color:#000000;font-style:normal;font-variant:normal;font-weight:normal;font-stretch:normal;font-size:medium;line-height:normal;font-family:sans-serif;text-indent:0;text-align:start;text-decoration:none;text-decoration-line:none;text-decoration-style:solid;text-decoration-color:#000000;letter-spacing:normal;word-spacing:normal;text-transform:none;direction:ltr;block-progression:tb;writing-mode:lr-tb;baseline-shift:baseline;text-anchor:start;white-space:normal;clip-rule:nonzero;display:inline;overflow:visible;visibility:visible;opacity:1;isolation:auto;mix-blend-mode:normal;color-interpolation:sRGB;color-interpolation-filters:linearRGB;solid-color:#000000;solid-opacity:1;fill:#000000;fill-opacity:1;fill-rule:evenodd;stroke:none;stroke-width:1px;stroke-linecap:butt;stroke-linejoin:miter;stroke-miterlimit:4;stroke-dasharray:none;stroke-dashoffset:0;stroke-opacity:1;color-rendering:auto;image-rendering:auto;shape-rendering:auto;text-rendering:auto;enable-background:accumulate" />
        <path
           sodipodi:nodetypes="ccsscc"
           inkscape:connector-curvature="0"
           id="rect5745"
           d="m 17.259008,1041.3955 0,3 9,0 c 1.108,0 2,-0.892 2,-2 l 0,-1 z"
           style="fill:#e6001f;fill-opacity:1;stroke:none;stroke-width:1;stroke-linecap:round;stroke-linejoin:round;stroke-opacity:1" />
        <path
           sodipodi:nodetypes="csssccsc"
           inkscape:connector-curvature="0"
           id="rect5722"
           d="m 10.327367,1035.7021 c -0.03932,0.226 -0.06836,0.4559 -0.06836,0.6934 l 0,4 c 0,2.216 1.784,4 4,4 l 4.82666,0 0,-8 -7.520019,0 c -0.582843,0 -1.069192,-0.2913 -1.238282,-0.6934 z"
           style="fill:#e6001f;fill-opacity:1;stroke:none;stroke-width:1;stroke-linecap:round;stroke-linejoin:round;stroke-opacity:1" />
        <path
           id="rect5709"
           d="m 9.7590075,1032.3955 1.4999995,0 c 0.554,0 1,0.446 1,1 0,0.554 -0.446,1 -1,1 l -1.4999995,0 c -0.554,0 -1,-0.446 -1,-1 0,-0.554 0.446,-1 1,-1 z"
           style="fill:#e6001f;fill-opacity:1;stroke:none;stroke-width:1;stroke-linecap:round;stroke-linejoin:round;stroke-opacity:1" />
        <path
           id="rect5711"
           d="m 1035.3955,-13.259007 2,0 c 0.554,0 1,0.446 1,1 0,0.554 -0.446,1 -1,1 l -2,0 c -0.554,0 -1,-0.446 -1,-1 0,-0.554 0.446,-1 1,-1 z"
           style="fill:#e6001f;fill-opacity:1;stroke:none;stroke-width:1;stroke-linecap:round;stroke-linejoin:round;stroke-opacity:1"
           transform="matrix(0,1,-1,0,0,0)" />
        <path
           inkscape:connector-curvature="0"
           id="rect5713"
           d="m 9.7590079,1033.8955 0,0.5 c 0.2770001,0 0.5000001,0.223 0.5000001,0.5 l 0.5,0 0,-1 -1.0000001,0 z"
           style="fill:#e6001f;fill-opacity:1;stroke:none;stroke-width:1;stroke-linecap:round;stroke-linejoin:round;stroke-opacity:1" />
        <path
           id="path5718"
           d="m 11.259007,1032.3955 a 2,2 0 0 1 2,2 l -2,0 z"
           style="fill:#e6001f;fill-opacity:1;stroke:none;stroke-width:1;stroke-linecap:round;stroke-linejoin:round;stroke-opacity:1" />
        <path
           id="rect5720"
           d="m 11.259007,1033.3955 c 0.554,0 1,0.446 1,1 l 0,3 c 0,0.554 -0.446,1 -1,1 -0.554,0 -1,-0.446 -1,-1 l 0,-3 c 0,-0.554 0.446,-1 1,-1 z"
           style="fill:#e6001f;fill-opacity:1;stroke:none;stroke-width:1;stroke-linecap:round;stroke-linejoin:round;stroke-opacity:1" />
        <path
           id="rect5724"
           d="m -19.116151,-1037.3955 5.714268,0 c 0.633143,0 1.142858,0.446 1.142858,1 0,0.554 -0.509715,1 -1.142858,1 l -5.714268,0 c -0.633143,0 -1.142857,-0.446 -1.142857,-1 0,-0.554 0.509714,-1 1.142857,-1 z"
           style="fill:#e6001f;fill-opacity:1;stroke:none;stroke-width:1;stroke-linecap:round;stroke-linejoin:round;stroke-opacity:1"
           transform="scale(-1,-1)" />
        <path
           inkscape:connector-curvature="0"
           style="fill:#e6001f;fill-opacity:1;stroke:none;stroke-width:1;stroke-linecap:round;stroke-linejoin:round;stroke-opacity:1"
           d="m 14.259008,1036.3955 0,-1 c -0.554,0 -1,-0.446 -1,-1 l -1,0 0,2 2,0 z"
           id="path5726" />
        <path
           id="rect5728"
           d="m 19.259008,1035.3955 c 1.108,0 2,0.892 2,2 l 0,3 c 0,1.108 -0.892,2 -2,2 -1.108,0 -2,-0.892 -2,-2 l 0,-3 c 0,-1.108 0.892,-2 2,-2 z"
           style="fill:#e6001f;fill-opacity:1;stroke:none;stroke-width:1;stroke-linecap:round;stroke-linejoin:round;stroke-opacity:1" />
        <path
           id="rect5730"
           d="m 1042.8955,-27.259008 c 0.831,0 1.5,0.669003 1.5,1.500008 l 0,3.999992 c 0,0.831005 -0.669,1.500009 -1.5,1.500009 -0.831,0 -1.5,-0.669004 -1.5,-1.500009 l 0,-3.999992 c 0,-0.831005 0.669,-1.500008 1.5,-1.500008 z"
           style="fill:#e6001f;fill-opacity:1;stroke:none;stroke-width:1;stroke-linecap:round;stroke-linejoin:round;stroke-opacity:1"
           transform="matrix(0,1,-1,0,0,0)" />
        <path
           inkscape:connector-curvature="0"
           style="fill:#e6001f;fill-opacity:1;stroke:none;stroke-width:1;stroke-linecap:round;stroke-linejoin:round;stroke-opacity:1"
           d="m 22.25901,1042.3955 0,-1 c -0.554,0 -1,-0.446 -1,-1 l -1,0 0,2 2,0 z"
           id="path5732" />
        <path
           id="path5734"
           d="m 25.25901,1042.3955 0,-1 c 0.554,0 1,-0.446 1,-1 l 1,0 0,2 -2,0 z"
           style="fill:#e6001f;fill-opacity:1;stroke:none;stroke-width:1;stroke-linecap:round;stroke-linejoin:round;stroke-opacity:1"
           inkscape:connector-curvature="0" />
        <path
           id="rect5736"
           d="m -1041.3955,26.259008 2,0 c 0.554,0 1,0.371668 1,0.833337 l 0,0.333327 c 0,0.461668 -0.446,0.833336 -1,0.833336 l -2,0 c -0.554,0 -1,-0.371668 -1,-0.833336 l 0,-0.333327 c 0,-0.461669 0.446,-0.833337 1,-0.833337 z"
           style="fill:#e6001f;fill-opacity:1;stroke:none;stroke-width:1;stroke-linecap:round;stroke-linejoin:round;stroke-opacity:1"
           transform="matrix(0,-1,1,0,0,0)" />
        <path
           id="path5740"
           d="m 29.259008,1039.3955 a 1.0000087,1.0000087 0 0 1 -1.000009,1 1.0000087,1.0000087 0 0 1 -1.000009,-1 1.0000087,1.0000087 0 0 1 1.000009,-1 1.0000087,1.0000087 0 0 1 1.000009,1 z"
           style="fill:#e6001f;fill-opacity:1;stroke:none;stroke-width:1;stroke-linecap:round;stroke-linejoin:round;stroke-opacity:1" />
        <path
           id="rect5742"
           d="m 27.259026,1038.3955 0.999965,0 c 10e-6,0 1.7e-5,0 1.7e-5,0 l 0,2 c 0,0 -7e-6,0 -1.7e-5,0 l -0.999965,0 c -10e-6,0 -1.8e-5,0 -1.8e-5,0 l 0,-2 c 0,0 8e-6,0 1.8e-5,0 z"
           style="fill:#e6001f;fill-opacity:1;stroke:none;stroke-width:1;stroke-linecap:round;stroke-linejoin:round;stroke-opacity:1" />
        <path
           inkscape:connector-curvature="0"
           id="path5766"
           d="m 31.029297,1041.3555 c -0.44554,0.1226 -0.829363,0.3886 -1.060547,0.789 a 0.50005,0.50005 0 0 0 0,0 c -0.26458,0.4627 -0.26458,1.0334 0,1.4961 0.264648,0.4627 0.757945,0.75 1.291016,0.75 a 0.50005,0.50005 0 1 0 0,-1 c -0.174063,0 -0.334923,-0.091 -0.423828,-0.2461 -0.08859,-0.1549 -0.0879,-0.3468 0,-0.502 0.229389,-0.3973 2.423828,-0.9411 2.423828,1.75 4e-6,1.1105 -0.889514,2 -2,2 l -2.494141,0 -21,0 a 0.50005,0.50005 0 1 0 0,1 l 21,0 2.494141,0 c 1.650933,0 3.000006,-1.349 3,-3 0,-2.4816 -1.893849,-3.4068 -3.230469,-3.039 z"
           style="color:#000000;font-style:normal;font-variant:normal;font-weight:normal;font-stretch:normal;font-size:medium;line-height:normal;font-family:sans-serif;text-indent:0;text-align:start;text-decoration:none;text-decoration-line:none;text-decoration-style:solid;text-decoration-color:#000000;letter-spacing:normal;word-spacing:normal;text-transform:none;direction:ltr;block-progression:tb;writing-mode:lr-tb;baseline-shift:baseline;text-anchor:start;white-space:normal;clip-rule:nonzero;display:inline;overflow:visible;visibility:visible;opacity:1;isolation:auto;mix-blend-mode:normal;color-interpolation:sRGB;color-interpolation-filters:linearRGB;solid-color:#000000;solid-opacity:1;fill:#000000;fill-opacity:1;fill-rule:evenodd;stroke:none;stroke-width:1px;stroke-linecap:round;stroke-linejoin:round;stroke-miterlimit:4;stroke-dasharray:none;stroke-dashoffset:0;stroke-opacity:1;color-rendering:auto;image-rendering:auto;shape-rendering:auto;text-rendering:auto;enable-background:accumulate" />
      </g>
    </g>
  </g>
</svg>
