<?xml version="1.0" encoding="UTF-8" standalone="no"?>
<!-- Generator: Adobe Illustrator 19.0.0, SVG Export Plug-In . SVG Version: 6.00 Build 0)  -->

<svg
   xmlns:dc="http://purl.org/dc/elements/1.1/"
   xmlns:cc="http://creativecommons.org/ns#"
   xmlns:rdf="http://www.w3.org/1999/02/22-rdf-syntax-ns#"
   xmlns:svg="http://www.w3.org/2000/svg"
   xmlns="http://www.w3.org/2000/svg"
   xmlns:sodipodi="http://sodipodi.sourceforge.net/DTD/sodipodi-0.dtd"
   xmlns:inkscape="http://www.inkscape.org/namespaces/inkscape"
   version="1.1"
   id="Capa_1"
   x="0px"
   y="0px"
   viewBox="0 0 480.187 480.187"
   style="enable-background:new 0 0 480.187 480.187;"
   xml:space="preserve"
   sodipodi:docname="trash full1.svg"
   inkscape:version="0.92.3 (2405546, 2018-03-11)"><metadata
   id="metadata93"><rdf:RDF><cc:Work
       rdf:about=""><dc:format>image/svg+xml</dc:format><dc:type
         rdf:resource="http://purl.org/dc/dcmitype/StillImage" /><dc:title></dc:title></cc:Work></rdf:RDF></metadata><defs
   id="defs91" /><sodipodi:namedview
   pagecolor="#ffffff"
   bordercolor="#666666"
   borderopacity="1"
   objecttolerance="10"
   gridtolerance="10"
   guidetolerance="10"
   inkscape:pageopacity="0"
   inkscape:pageshadow="2"
   inkscape:window-width="685"
   inkscape:window-height="480"
   id="namedview89"
   showgrid="false"
   inkscape:zoom="0.49147518"
   inkscape:cx="334.71254"
   inkscape:cy="240.09351"
   inkscape:window-x="0"
   inkscape:window-y="0"
   inkscape:window-maximized="0"
   inkscape:current-layer="Capa_1" />
<path
   style="fill:#DD1C4B;"
   d="M243.421,199.48c-62.008-62-130-94.536-151.872-72.672c-2.4,2.514-4.166,5.563-5.152,8.896  l-0.352-0.352l-20.888,85.6l-20.8,85.344L19.701,407.352l-15.608,64l92.408-34.968l117.536-44.472l93.768-35.48l-0.112-0.112  c3.139-1.001,6.011-2.699,8.4-4.968C337.965,329.48,305.429,261.488,243.421,199.48z"
   id="path2" />
<ellipse
   transform="matrix(-0.7071 -0.7071 0.7071 -0.7071 178.9146 552.2075)"
   style="fill:#D1E3EE;"
   cx="203.823"
   cy="239.049"
   rx="158.777"
   ry="56"
   id="ellipse4" />
<path
   style="fill:#B21D48;"
   d="M299.293,359.2c-11.196,0.196-22.304-2.008-32.576-6.464l-76.64,29L72.501,426.168L9.453,450.024  L4.093,472l92.408-34.968l117.536-44.472L300.093,360L299.293,359.2z"
   id="path6" />
<g
   id="g14">
	<path
   style="fill:#FFBF41;"
   d="M396.093,296c-0.958-0.003-1.908-0.174-2.808-0.504c-40.613-15.215-84.514-19.481-127.296-12.368   l-28.576,4.76c-4.374,0.624-8.426-2.416-9.05-6.79c-0.603-4.226,2.218-8.181,6.41-8.986l28.584-4.8   c45.554-7.569,92.297-3.03,135.544,13.16c4.158,1.494,6.317,6.076,4.823,10.234C402.57,293.918,399.506,296.044,396.093,296z"
   id="path8" />
	<path
   style="fill:#FFBF41;"
   d="M252.093,248c-4.418-0.026-7.979-3.629-7.953-8.047c0.018-3.05,1.768-5.824,4.513-7.153l168-80   c3.99-1.9,8.764-0.206,10.664,3.784s0.206,8.764-3.784,10.664l0,0l-168,80C254.457,247.751,253.282,248.008,252.093,248z"
   id="path10" />
	<path
   style="fill:#FFBF41;"
   d="M158.541,232c-1.055,0.002-2.1-0.207-3.072-0.616c-4.078-1.701-6.005-6.385-4.304-10.463   c0,0,0-0.001,0-0.001l11.632-27.912c17.897-42.765,22.07-90.033,11.944-135.272c-1.038-4.295,1.603-8.617,5.897-9.655   c4.295-1.038,8.617,1.603,9.655,5.897c0.023,0.095,0.044,0.19,0.064,0.286c10.848,48.461,6.375,99.095-12.8,144.904l-11.64,27.912   C164.675,230.057,161.767,231.997,158.541,232L158.541,232z"
   id="path12" />
</g>
<circle
   style="fill:#D5557E;"
   cx="436.093"
   cy="312"
   r="16"
   id="circle16" />
<circle
   style="fill:#DD95C1;"
   cx="244.093"
   cy="88"
   r="16"
   id="circle18" />
<path
   style="fill:#7FCCCB;"
   d="M172.093,32c-8.837,0-16-7.163-16-16s7.163-16,16-16s16,7.163,16,16S180.93,32,172.093,32z"
   id="path20" />
<g
   id="g30">
	<path
   style="fill:#2276BB;"
   d="M396.093,64c-4.418,0-8-3.582-8-8v-8c0-4.418,3.582-8,8-8s8,3.582,8,8v8   C404.093,60.418,400.512,64,396.093,64z"
   id="path22" />
	<path
   style="fill:#2276BB;"
   d="M396.093,24c-4.418,0-8-3.582-8-8V8c0-4.418,3.582-8,8-8s8,3.582,8,8v8   C404.093,20.418,400.512,24,396.093,24z"
   id="path24" />
	<path
   style="fill:#2276BB;"
   d="M420.093,40h-8c-4.418,0-8-3.582-8-8s3.582-8,8-8h8c4.418,0,8,3.582,8,8S424.512,40,420.093,40z"
   id="path26" />
	<path
   style="fill:#2276BB;"
   d="M380.093,40h-8c-4.418,0-8-3.582-8-8s3.582-8,8-8h8c4.418,0,8,3.582,8,8S384.512,40,380.093,40z"
   id="path28" />
</g>
<path
   style="fill:#FFFFFF;"
   d="M67.597,232c-0.896-3.424-1.696-6.88-2.44-10.4l-20.8,85.344l1.6,19.512  c3.487,41.599,21.357,80.683,50.536,110.536l117.544-44.432c-0.64-0.2-1.304-0.344-1.944-0.56  C140.818,365.275,86.945,305.621,67.597,232z"
   id="path32" />
<path
   style="fill:#F6F6E7;"
   d="M214.037,392.56c-0.64-0.2-1.304-0.344-1.944-0.56c-7.7-2.915-15.242-6.234-22.592-9.944  L83.629,422.112c4.014,5.206,8.311,10.187,12.872,14.92L214.037,392.56z"
   id="path34" />
<path
   style="fill:#C9DA53;"
   d="M340.093,95.832V136h-40.168V95.832H340.093z"
   id="path36" />
<path
   style="fill:#FFBF41;"
   d="M196.093,240c-4.418-0.001-7.999-3.584-7.998-8.002c0.001-2.266,0.962-4.425,2.646-5.942l80-72  c3.341-2.891,8.393-2.526,11.284,0.815c2.811,3.248,2.555,8.136-0.58,11.073l-80,72C199.977,239.267,198.07,239.999,196.093,240  L196.093,240z"
   id="path38" />


<g
   id="g58">
</g>
<g
   id="g60">
</g>
<g
   id="g62">
</g>
<g
   id="g64">
</g>
<g
   id="g66">
</g>
<g
   id="g68">
</g>
<g
   id="g70">
</g>
<g
   id="g72">
</g>
<g
   id="g74">
</g>
<g
   id="g76">
</g>
<g
   id="g78">
</g>
<g
   id="g80">
</g>
<g
   id="g82">
</g>
<g
   id="g84">
</g>
<g
   id="g86">
</g>
</svg>