<?xml version="1.0" encoding="UTF-8" standalone="no"?>
<!-- Generator: Adobe Illustrator 19.0.0, SVG Export Plug-In . SVG Version: 6.00 Build 0)  -->

<svg
   xmlns:dc="http://purl.org/dc/elements/1.1/"
   xmlns:cc="http://creativecommons.org/ns#"
   xmlns:rdf="http://www.w3.org/1999/02/22-rdf-syntax-ns#"
   xmlns:svg="http://www.w3.org/2000/svg"
   xmlns="http://www.w3.org/2000/svg"
   xmlns:sodipodi="http://sodipodi.sourceforge.net/DTD/sodipodi-0.dtd"
   xmlns:inkscape="http://www.inkscape.org/namespaces/inkscape"
   version="1.1"
   id="Capa_1"
   x="0px"
   y="0px"
   viewBox="0 0 480.187 480.187"
   style="enable-background:new 0 0 480.187 480.187;"
   xml:space="preserve"
   sodipodi:docname="trash empty.svg"
   inkscape:version="0.92.3 (2405546, 2018-03-11)"><metadata
   id="metadata93"><rdf:RDF><cc:Work
       rdf:about=""><dc:format>image/svg+xml</dc:format><dc:type
         rdf:resource="http://purl.org/dc/dcmitype/StillImage" /><dc:title></dc:title></cc:Work></rdf:RDF></metadata><defs
   id="defs91" /><sodipodi:namedview
   pagecolor="#ffffff"
   bordercolor="#666666"
   borderopacity="1"
   objecttolerance="10"
   gridtolerance="10"
   guidetolerance="10"
   inkscape:pageopacity="0"
   inkscape:pageshadow="2"
   inkscape:window-width="685"
   inkscape:window-height="480"
   id="namedview89"
   showgrid="false"
   inkscape:zoom="0.49147518"
   inkscape:cx="144.92249"
   inkscape:cy="240.09351"
   inkscape:window-x="0"
   inkscape:window-y="0"
   inkscape:window-maximized="0"
   inkscape:current-layer="Capa_1" />
<path
   style="fill:#DD1C4B;"
   d="M243.421,199.48c-62.008-62-130-94.536-151.872-72.672c-2.4,2.514-4.166,5.563-5.152,8.896  l-0.352-0.352l-20.888,85.6l-20.8,85.344L19.701,407.352l-15.608,64l92.408-34.968l117.536-44.472l93.768-35.48l-0.112-0.112  c3.139-1.001,6.011-2.699,8.4-4.968C337.965,329.48,305.429,261.488,243.421,199.48z"
   id="path2" />
<ellipse
   transform="matrix(-0.7071 -0.7071 0.7071 -0.7071 178.9146 552.2075)"
   style="fill:#D1E3EE;"
   cx="203.823"
   cy="239.049"
   rx="158.777"
   ry="56"
   id="ellipse4" />
<path
   style="fill:#B21D48;"
   d="M299.293,359.2c-11.196,0.196-22.304-2.008-32.576-6.464l-76.64,29L72.501,426.168L9.453,450.024  L4.093,472l92.408-34.968l117.536-44.472L300.093,360L299.293,359.2z"
   id="path6" />





<path
   style="fill:#FFFFFF;"
   d="M67.597,232c-0.896-3.424-1.696-6.88-2.44-10.4l-20.8,85.344l1.6,19.512  c3.487,41.599,21.357,80.683,50.536,110.536l117.544-44.432c-0.64-0.2-1.304-0.344-1.944-0.56  C140.818,365.275,86.945,305.621,67.597,232z"
   id="path32" />
<path
   style="fill:#F6F6E7;"
   d="M214.037,392.56c-0.64-0.2-1.304-0.344-1.944-0.56c-7.7-2.915-15.242-6.234-22.592-9.944  L83.629,422.112c4.014,5.206,8.311,10.187,12.872,14.92L214.037,392.56z"
   id="path34" />




<g
   id="g58">
</g>
<g
   id="g60">
</g>
<g
   id="g62">
</g>
<g
   id="g64">
</g>
<g
   id="g66">
</g>
<g
   id="g68">
</g>
<g
   id="g70">
</g>
<g
   id="g72">
</g>
<g
   id="g74">
</g>
<g
   id="g76">
</g>
<g
   id="g78">
</g>
<g
   id="g80">
</g>
<g
   id="g82">
</g>
<g
   id="g84">
</g>
<g
   id="g86">
</g>
</svg>